<svg width="568" height="665" viewBox="0 0 568 665" fill="none" xmlns="http://www.w3.org/2000/svg">
<path d="M498.246 133.993L568 173.694V374.683L303.93 526.045V665L231.684 625.299V486.343L498.246 330.175V133.993Z" fill="#282627"/>
<path d="M341.298 548.377V650.112L396.105 620.336V518.601L341.298 548.377Z" fill="#282627"/>
<path d="M428.491 498.75V600.485L483.298 570.709V468.974L428.491 498.75Z" fill="#282627"/>
<path d="M513.193 449.123V550.858L568 521.082V419.347L513.193 449.123Z" fill="#282627"/>
<path d="M381.158 66.9963L450.912 106.698V292.799L186.842 444.16V598.004L114.596 558.302V404.459L381.158 258.06V66.9963Z" fill="#282627"/>
<path d="M266.561 0L336.316 39.7015V210.914L72.2456 362.276V533.489L0 493.787V322.575L266.561 176.175V0Z" fill="#282627"/>
<path d="M174.386 47.1455V176.175L226.702 146.399V14.8881L174.386 47.1455Z" fill="#282627"/>
<path d="M87.193 96.7724V225.802L139.509 196.026V64.5149L87.193 96.7724Z" fill="#282627"/>
<path d="M0 146.399V275.429L52.3158 245.653V114.142L0 146.399Z" fill="#282627"/>
</svg>
