<svg width="246" height="61" viewBox="0 0 246 61" fill="none" xmlns="http://www.w3.org/2000/svg">
<path d="M77.599 29.9143C75.3277 29.9143 73.3971 29.7579 71.8073 29.4453C70.2174 29.1326 68.9114 28.6067 67.8893 27.8677C66.8957 27.1002 66.1575 26.0627 65.6749 24.7552C65.2206 23.4476 64.9935 21.799 64.9935 19.8093C64.9935 17.7627 65.2348 16.0998 65.7174 14.8207C66.2001 13.5132 66.9524 12.4899 67.9745 11.7508C69.025 10.9834 70.3451 10.4433 71.935 10.1306C73.5533 9.81794 75.4839 9.6616 77.7267 9.6616C79.9696 9.6616 81.886 9.81794 83.4759 10.1306C85.0658 10.4433 86.3575 10.9834 87.3512 11.7508C88.3733 12.4899 89.1114 13.5132 89.5657 14.8207C90.0483 16.1282 90.2897 17.7911 90.2897 19.8093C90.2897 21.8274 90.0483 23.4903 89.5657 24.7978C89.0831 26.1054 88.3307 27.1429 87.3086 27.9103C86.2866 28.6494 84.9664 29.1752 83.3481 29.4879C81.7582 29.7722 79.8419 29.9143 77.599 29.9143ZM77.6416 26.2901C78.5785 26.2901 79.3876 26.2048 80.069 26.0343C80.7788 25.8353 81.3466 25.4942 81.7724 25.011C82.2267 24.5278 82.5532 23.874 82.7519 23.0497C82.979 22.1969 83.0926 21.1168 83.0926 19.8093C83.0926 18.4733 82.979 17.3932 82.7519 16.5688C82.5532 15.7161 82.2267 15.0623 81.7724 14.6075C81.3466 14.1243 80.7788 13.7974 80.069 13.6269C79.3876 13.4279 78.5785 13.3284 77.6416 13.3284C76.6763 13.3284 75.8388 13.4279 75.129 13.6269C74.4476 13.7974 73.894 14.1243 73.4681 14.6075C73.0423 15.0623 72.7158 15.7161 72.4886 16.5688C72.2615 17.3932 72.148 18.4733 72.148 19.8093C72.148 21.1168 72.2615 22.1969 72.4886 23.0497C72.7158 23.874 73.0423 24.5278 73.4681 25.011C73.894 25.4942 74.4476 25.8353 75.129 26.0343C75.8388 26.2048 76.6763 26.2901 77.6416 26.2901ZM87.0531 33.3679C86.4853 33.3679 85.9033 33.2258 85.3071 32.9415C84.7393 32.6857 84.1289 32.2451 83.4759 31.6198C83.1636 31.3071 82.7803 30.8807 82.326 30.3407C81.9002 29.829 81.4175 29.2605 80.8781 28.6352C80.3671 28.0098 79.8277 27.3845 79.2598 26.7591C78.7204 26.1054 78.181 25.5084 77.6416 24.9684C77.1021 24.4283 76.6053 23.9735 76.1511 23.604C76.293 23.1776 76.5201 22.8791 76.8324 22.7086C77.1731 22.5096 77.5138 22.4101 77.8545 22.4101C78.3371 22.4101 78.763 22.4954 79.1321 22.666C79.5296 22.8081 80.0122 23.1208 80.58 23.604C81.1762 24.0872 81.7724 24.6131 82.3686 25.1816C82.9648 25.75 83.5469 26.3328 84.1147 26.9297C84.7109 27.5266 85.3071 28.1093 85.9033 28.6778C86.4995 29.2179 87.1241 29.7295 87.7771 30.2127C88.4301 30.7244 89.1256 31.165 89.8638 31.5345C89.5515 32.1883 89.154 32.6573 88.6714 32.9415C88.2171 33.2258 87.6777 33.3679 87.0531 33.3679Z" fill="white" fill-opacity="0.4"/>
<path d="M117.043 19.8945C117.043 21.5716 116.944 23.0355 116.745 24.2862C116.575 25.5084 116.121 26.5317 115.383 27.3561C114.644 28.1519 113.48 28.7489 111.89 29.1468C110.301 29.5163 108.1 29.7011 105.29 29.7011C102.99 29.7011 101.102 29.5732 99.6257 29.3174C98.1777 29.0615 97.0421 28.6778 96.2188 28.1662C95.4238 27.6545 94.8418 27.0292 94.4727 26.2901C94.1037 25.5511 93.8765 24.6841 93.7914 23.6892C93.7346 22.6944 93.7062 21.5858 93.7062 20.3635V13.1579C93.7062 12.2767 93.7346 11.6087 93.7914 11.1539C93.8482 10.6991 94.0611 10.4006 94.4302 10.2585C94.7992 10.088 95.4238 10.0027 96.304 10.0027H100.69V21.7279C100.69 22.9218 100.846 23.8172 101.159 24.4141C101.471 25.011 101.968 25.409 102.649 25.6079C103.331 25.7785 104.211 25.8637 105.29 25.8637C107.021 25.8637 108.242 25.5653 108.952 24.9684C109.662 24.3714 110.017 23.3055 110.017 21.7706V10.0027H114.36C115.269 10.0027 115.908 10.088 116.277 10.2585C116.646 10.4006 116.859 10.6991 116.916 11.1539C117.001 11.6087 117.043 12.2767 117.043 13.1579V19.8945Z" fill="white" fill-opacity="0.4"/>
<path d="M119.196 29.6158L125.968 13.3284C126.422 12.2198 127.075 11.3671 127.927 10.7702C128.778 10.1448 130.113 9.83215 131.93 9.83215C133.434 9.83215 134.655 10.1164 135.592 10.6849C136.529 11.2534 137.239 12.1346 137.721 13.3284L144.535 29.6158H136.955L135.124 25.2242H126.266L124.562 29.6158H119.196ZM127.373 22.538H133.846L131.546 16.5688C131.461 16.3414 131.362 16.1425 131.248 15.9719C131.135 15.7729 130.936 15.6735 130.652 15.6735C130.34 15.6735 130.113 15.7729 129.971 15.9719C129.857 16.1425 129.758 16.3414 129.673 16.5688L127.373 22.538Z" fill="white" fill-opacity="0.4"/>
<path d="M141.627 10.0027H165.135V13.7121H156.916V27.3134C156.916 28.223 156.774 28.8341 156.49 29.1468C156.206 29.4595 155.567 29.6158 154.573 29.6158H149.889V13.7121H141.627V10.0027Z" fill="white" fill-opacity="0.4"/>
<path d="M166.663 10.0027H190.171V13.7121H181.952V27.3134C181.952 28.223 181.81 28.8341 181.526 29.1468C181.242 29.4595 180.603 29.6158 179.609 29.6158H174.925V13.7121H166.663V10.0027Z" fill="white" fill-opacity="0.4"/>
<path d="M205.753 23.0071C205.753 23.0071 205.469 23.0071 204.901 23.0071C204.362 23.0071 203.666 23.0213 202.814 23.0497C201.963 23.0497 201.082 23.0497 200.174 23.0497V29.6158H193.19V12.6036C193.19 11.7793 193.374 11.1397 193.743 10.6849C194.112 10.2301 194.865 10.0027 196 10.0027C196.426 10.0027 197.065 10.0027 197.917 10.0027C198.769 9.97428 199.748 9.96006 200.855 9.96006C201.963 9.96006 203.098 9.96006 204.262 9.96006C205.455 9.93164 206.59 9.93164 207.669 9.96006C208.748 9.96006 209.685 9.97428 210.48 10.0027C211.303 10.0027 211.899 10.0169 212.268 10.0453C213.801 10.1875 214.951 10.6565 215.718 11.4524C216.484 12.2198 216.868 13.4847 216.868 15.2471C216.868 16.8389 216.74 18.0043 216.484 18.7433C216.257 19.454 215.874 20.0082 215.335 20.4062C215.136 20.5483 214.866 20.662 214.525 20.7473C214.185 20.8326 213.801 20.8752 213.376 20.8752V21.0457C213.574 21.0457 213.787 21.0457 214.014 21.0457C214.27 21.0457 214.483 21.06 214.653 21.0884C215.732 21.2874 216.371 21.6995 216.57 22.3249C216.797 22.9502 216.91 23.604 216.91 24.2862V28.0382C216.91 28.5783 216.967 28.9763 217.081 29.2321C217.194 29.4595 217.265 29.5874 217.294 29.6158H212.098C211.36 29.6158 210.778 29.5021 210.352 29.2747C209.955 29.0473 209.756 28.5641 209.756 27.8251V25.011C209.756 24.1298 209.557 23.5756 209.16 23.3482C208.791 23.1208 208.123 23.0071 207.158 23.0071H205.753ZM200.174 19.6814C200.486 19.6814 200.955 19.6956 201.579 19.724C202.232 19.724 202.942 19.724 203.709 19.724C204.475 19.724 205.171 19.724 205.795 19.724C206.448 19.724 206.917 19.724 207.201 19.724C207.882 19.724 208.478 19.5108 208.989 19.0844C209.529 18.6296 209.798 17.7911 209.798 16.5688C209.798 15.7161 209.642 15.0481 209.33 14.5649C209.046 14.0817 208.563 13.8116 207.882 13.7548C207.485 13.6695 206.945 13.6269 206.264 13.6269C205.611 13.6269 204.915 13.6269 204.177 13.6269C203.467 13.6269 202.814 13.6411 202.218 13.6695C201.622 13.6695 201.182 13.6695 200.898 13.6695C200.841 13.6695 200.699 13.7121 200.472 13.7974C200.273 13.8827 200.174 14.0959 200.174 14.437V19.6814Z" fill="white" fill-opacity="0.4"/>
<path d="M232.722 29.9143C230.451 29.9143 228.521 29.7579 226.931 29.4453C225.341 29.1326 224.035 28.6067 223.013 27.8677C222.019 27.1002 221.281 26.0627 220.798 24.7552C220.344 23.4476 220.117 21.799 220.117 19.8093C220.117 17.7627 220.358 16.0998 220.841 14.8207C221.323 13.5132 222.076 12.4899 223.098 11.7508C224.148 10.9834 225.469 10.4433 227.058 10.1306C228.677 9.81794 230.607 9.6616 232.85 9.6616C235.093 9.6616 237.009 9.81794 238.599 10.1306C240.189 10.4433 241.481 10.9834 242.475 11.7508C243.497 12.4899 244.235 13.5132 244.689 14.8207C245.172 16.1282 245.413 17.7911 245.413 19.8093C245.413 21.8274 245.172 23.4903 244.689 24.7978C244.206 26.1054 243.454 27.1429 242.432 27.9103C241.41 28.6494 240.09 29.1752 238.472 29.4879C236.882 29.7722 234.965 29.9143 232.722 29.9143ZM232.765 26.2901C233.702 26.2901 234.511 26.2048 235.192 26.0343C235.902 25.8353 236.47 25.4942 236.896 25.011C237.35 24.5278 237.677 23.874 237.875 23.0497C238.102 22.1969 238.216 21.1168 238.216 19.8093C238.216 18.4733 238.102 17.3932 237.875 16.5688C237.677 15.7161 237.35 15.0623 236.896 14.6075C236.47 14.1243 235.902 13.7974 235.192 13.6269C234.511 13.4279 233.702 13.3284 232.765 13.3284C231.8 13.3284 230.962 13.4279 230.252 13.6269C229.571 13.7974 229.017 14.1243 228.592 14.6075C228.166 15.0623 227.839 15.7161 227.612 16.5688C227.385 17.3932 227.271 18.4733 227.271 19.8093C227.271 21.1168 227.385 22.1969 227.612 23.0497C227.839 23.874 228.166 24.5278 228.592 25.011C229.017 25.4942 229.571 25.8353 230.252 26.0343C230.962 26.2048 231.8 26.2901 232.765 26.2901Z" fill="white" fill-opacity="0.4"/>
<path d="M45.4904 12.7302L51.7767 16.3123V34.4466L27.9784 48.1033V60.6406L21.4675 57.0585V44.5212L45.4904 30.4308V12.7302Z" fill="white" fill-opacity="0.4"/>
<path d="M31.3461 50.1182V59.2973L36.2853 56.6108V47.4317L31.3461 50.1182Z" fill="white" fill-opacity="0.4"/>
<path d="M39.204 45.6406V54.8197L44.1433 52.1332V42.9541L39.204 45.6406Z" fill="white" fill-opacity="0.4"/>
<path d="M46.8374 41.163V50.3421L51.7767 47.6556V38.4764L46.8374 41.163Z" fill="white" fill-opacity="0.4"/>
<path d="M34.9383 6.6854L41.2246 10.2675V27.0585L17.4263 40.7153V54.5958L10.9155 51.0138V37.1332L34.9383 23.9242V6.6854Z" fill="white" fill-opacity="0.4"/>
<path d="M24.6107 0.640625L30.8971 4.22271V19.6705L7.09875 33.3272V48.775L0.587891 45.1929V29.7451L24.6107 16.5361V0.640625Z" fill="white" fill-opacity="0.4"/>
<path d="M16.3038 4.89436V16.5361L21.0185 13.8496V1.98391L16.3038 4.89436Z" fill="white" fill-opacity="0.4"/>
<path d="M8.44582 9.37197V21.0138L13.1606 18.3272V6.46152L8.44582 9.37197Z" fill="white" fill-opacity="0.4"/>
<path d="M0.587891 13.8496V25.4914L5.30265 22.8048V10.9391L0.587891 13.8496Z" fill="white" fill-opacity="0.4"/>
<path d="M68.5617 52.249C68.0712 52.249 67.593 52.1999 67.127 52.1018C66.6856 52.0037 66.2932 51.8319 65.9499 51.5865C65.6801 51.3902 65.4594 51.1203 65.2878 50.7768C65.0916 50.4333 64.9935 49.9916 64.9935 49.4518C64.9935 48.8139 65.1529 48.3231 65.4717 47.9796C65.766 47.6361 66.0848 47.4643 66.4281 47.4643C66.6979 47.1208 67.0657 46.6423 67.5317 46.0289C67.9976 45.391 68.5126 44.6917 69.0767 43.931C69.6652 43.1704 70.266 42.4097 70.8791 41.6491C71.4922 40.8639 72.0685 40.1646 72.608 39.5512C72.9514 39.2077 73.307 38.8396 73.6748 38.447C74.0672 38.0544 74.4964 37.7232 74.9623 37.4533C75.4528 37.1588 75.9678 37.0116 76.5073 37.0116C76.9242 37.0116 77.2185 37.1098 77.3901 37.3061C77.5863 37.5024 77.6844 37.7355 77.6844 38.0054C77.6844 38.1526 77.6476 38.2875 77.5741 38.4102C77.3043 38.3612 76.9242 38.4102 76.4337 38.5574C75.9432 38.6801 75.4037 38.9132 74.8152 39.2567C74.1775 39.6493 73.5277 40.1401 72.8655 40.729C72.841 41.0234 72.8042 41.4773 72.7552 42.0908C72.7307 42.6796 72.6939 43.3544 72.6448 44.115C72.5958 44.8512 72.5099 45.5995 72.3873 46.3602C72.2892 47.0963 72.1544 47.7465 71.9827 48.3109C71.8601 48.7034 71.6639 49.1451 71.3941 49.6358C71.1244 50.102 70.7565 50.5437 70.2906 50.9608C69.8491 51.3534 69.2974 51.6233 68.6352 51.7705C69.5181 51.7705 70.2538 51.6356 70.8423 51.3657C71.4309 51.0958 71.9214 50.7891 72.3138 50.4456C72.7307 50.0775 73.0617 49.7831 73.307 49.5622C73.5032 49.3659 73.7729 49.0838 74.1162 48.7157C74.4596 48.3477 74.7048 48.0778 74.8519 47.906C74.95 47.906 74.9991 47.9796 74.9991 48.1268C74.9991 48.3477 74.95 48.5194 74.8519 48.6421C73.822 49.7463 72.9636 50.556 72.277 51.0712C71.6639 51.5374 71.0385 51.8442 70.4009 51.9914C69.7633 52.1631 69.1502 52.249 68.5617 52.249ZM67.2742 51.5497C67.6911 51.5497 68.0712 51.3902 68.4145 51.0712C68.7824 50.7277 69.1134 50.3351 69.4077 49.8935C69.702 49.4273 69.935 48.9979 70.1066 48.6053C70.3764 48.0164 70.6584 47.268 70.9527 46.3602C71.247 45.4523 71.529 44.5322 71.7988 43.5998C72.0685 42.6428 72.2892 41.8209 72.4609 41.1338C71.7742 41.7963 71.0876 42.5201 70.4009 43.3053C69.7388 44.0905 69.1257 44.8389 68.5617 45.5505C67.9976 46.262 67.5317 46.8509 67.1638 47.3171C66.845 47.7342 66.5998 48.1759 66.4281 48.6421C66.2564 49.1083 66.1706 49.55 66.1706 49.9671C66.1706 50.4333 66.2687 50.8136 66.4649 51.1081C66.6611 51.4025 66.9308 51.5497 67.2742 51.5497Z" fill="white" fill-opacity="0.4"/>
<path d="M76.2831 52.1754C75.5719 52.1754 75.0692 52.0036 74.7749 51.6601C74.4561 51.2921 74.2967 50.8381 74.2967 50.2983C74.2967 49.6113 74.4929 48.8016 74.8853 47.8692C75.3022 46.9368 75.854 45.9921 76.5406 45.0352C77.2273 44.0782 77.9998 43.1949 78.8581 42.3852C79.7164 41.5509 80.587 40.8885 81.4698 40.3977C82.3772 39.8824 83.2478 39.6248 84.0816 39.6248C84.6947 39.6248 85.1361 39.7843 85.4059 40.1033C85.6756 40.4222 85.8105 40.8394 85.8105 41.3546C85.8105 42.0417 85.6143 42.8637 85.2219 43.8206C84.8296 44.753 84.2901 45.7099 83.6034 46.6914C82.9413 47.6484 82.1933 48.5439 81.3595 49.3782C80.5502 50.2125 79.7042 50.8872 78.8213 51.4025C77.9385 51.9178 77.0924 52.1754 76.2831 52.1754ZM76.7245 51.4761C77.2395 51.4761 77.8526 51.2185 78.5638 50.7032C79.2995 50.1634 80.0475 49.4763 80.8077 48.6421C81.5679 47.8078 82.2669 46.9245 82.9045 45.9921C83.5666 45.0352 84.0939 44.1396 84.4862 43.3053C84.9031 42.4465 85.1116 41.7472 85.1116 41.2074C85.1116 40.6185 84.8296 40.3241 84.2655 40.3241C83.7996 40.3241 83.211 40.6063 82.4998 41.1706C81.8132 41.7104 81.0897 42.4097 80.3295 43.2685C79.5938 44.1273 78.8949 45.0352 78.2327 45.9921C77.5706 46.9491 77.0311 47.8569 76.6142 48.7157C76.2218 49.5745 76.0256 50.2493 76.0256 50.74C76.0256 51.2307 76.2586 51.4761 76.7245 51.4761Z" fill="white" fill-opacity="0.4"/>
<path d="M85.1415 51.9914C84.5529 51.9914 84.136 51.8564 83.8908 51.5865C83.6455 51.3166 83.5229 50.9731 83.5229 50.556C83.5229 50.1388 83.621 49.6849 83.8172 49.1942C83.9889 48.6789 84.2096 48.1759 84.4793 47.6852C84.9453 46.9 85.4725 46.1148 86.0611 45.3296C86.6742 44.5199 87.2873 43.7715 87.9004 43.0845C88.538 42.3975 89.102 41.8086 89.5925 41.3178C90.0584 40.8516 90.5367 40.5081 91.0271 40.2873C91.5176 40.0665 91.9345 39.9192 92.2778 39.8456C92.6457 39.7475 92.8296 39.6984 92.8296 39.6984C92.2901 40.3118 91.5544 41.1829 90.6225 42.3116C89.7151 43.4403 88.7955 44.6426 87.8636 45.9185C87.7655 46.0412 87.5816 46.2988 87.3118 46.6914C87.0666 47.084 86.7968 47.5257 86.5025 48.0164C86.2083 48.4826 85.9508 48.9488 85.73 49.415C85.5339 49.8567 85.4358 50.2125 85.4358 50.4824C85.4358 50.7523 85.5829 50.875 85.8772 50.8504C86.196 50.8259 86.6129 50.5928 87.1279 50.1511C87.6429 49.7094 88.1947 49.1696 88.7832 48.5317C89.3718 47.8937 89.9236 47.268 90.4386 46.6546C90.9781 46.0167 91.4195 45.4891 91.7628 45.072C92.0326 44.753 92.3637 44.3604 92.756 43.8942C93.1484 43.4035 93.5531 42.9005 93.97 42.3852C94.3869 41.8699 94.767 41.416 95.1103 41.0234C95.5027 40.5817 95.9196 40.275 96.361 40.1033C96.8024 39.907 97.1825 39.7966 97.5013 39.772C97.8447 39.7229 98.0163 39.6984 98.0163 39.6984C97.8201 39.9438 97.4278 40.4222 96.8392 41.1338C96.2752 41.8454 95.6376 42.6919 94.9264 43.6734C94.2152 44.6303 93.5408 45.6363 92.9032 46.6914C92.2656 47.722 91.7751 48.7034 91.4318 49.6358C91.2601 50.053 91.1743 50.3965 91.1743 50.6664C91.1743 50.9118 91.2356 51.0835 91.3582 51.1817C91.4808 51.2553 91.6157 51.2921 91.7628 51.2921C92.1062 51.2921 92.4863 51.1449 92.9032 50.8504C93.3446 50.556 93.7615 50.2125 94.1539 49.8199C94.5708 49.4027 94.9386 49.0102 95.2574 48.6421C95.5762 48.274 95.7847 48.0287 95.8828 47.906C95.9809 47.906 96.0299 47.9796 96.0299 48.1268C96.0299 48.3477 95.9809 48.5194 95.8828 48.6421C95.5149 49.0838 95.0612 49.5622 94.5217 50.0775C94.0067 50.5928 93.455 51.0467 92.8664 51.4393C92.3024 51.8074 91.7383 51.9914 91.1743 51.9914C90.5612 51.9914 90.132 51.8442 89.8868 51.5497C89.6415 51.2553 89.5189 50.8872 89.5189 50.4456C89.5189 50.0284 89.6048 49.5745 89.7764 49.0838C89.9481 48.5685 90.1565 48.09 90.4018 47.6484C90.1075 47.9428 89.7519 48.3354 89.335 48.8261C88.9426 49.2923 88.5012 49.7708 88.0107 50.2615C87.5203 50.7523 87.0298 51.1694 86.5393 51.5129C86.0489 51.8319 85.5829 51.9914 85.1415 51.9914Z" fill="white" fill-opacity="0.4"/>
<path d="M101.712 52.0282C101.197 52.0282 100.829 51.8932 100.608 51.6233C100.387 51.3289 100.277 50.9608 100.277 50.5192C100.277 49.8567 100.51 49.1083 100.976 48.274C101.442 47.4153 102.043 46.5197 102.778 45.5873C103.539 44.6549 104.323 43.7347 105.133 42.8269C105.966 41.919 106.751 41.0847 107.487 40.3241C107.119 40.3241 106.714 40.4222 106.273 40.6185C105.856 40.8148 105.427 41.0479 104.985 41.3178C104.323 41.7595 103.6 42.3484 102.815 43.0845C102.03 43.8206 101.246 44.6058 100.461 45.44C99.6761 46.2743 98.9281 47.0963 98.2169 47.906C97.6529 48.5685 97.1992 49.1206 96.8559 49.5622C96.5371 50.0039 96.2551 50.4088 96.0098 50.7768C95.7891 51.1203 95.5439 51.5129 95.2741 51.9546C94.8817 51.9546 94.6855 51.7215 94.6855 51.2553C94.6855 50.7645 94.8449 50.1757 95.1637 49.4886C95.458 48.8016 95.7155 48.2618 95.9362 47.8692C96.5738 46.7896 97.2973 45.6609 98.1066 44.4831C98.9404 43.2808 99.7129 42.2257 100.424 41.3178C100.792 40.8271 101.184 40.4713 101.601 40.2505C102.018 40.0051 102.374 39.8579 102.668 39.8088C102.962 39.7352 103.109 39.6984 103.109 39.6984C102.962 39.9192 102.656 40.3854 102.19 41.097C101.724 41.8086 101.184 42.6428 100.571 43.5998C99.9581 44.5567 99.3327 45.5259 98.6951 46.5074C99.7006 45.3542 100.78 44.2377 101.932 43.1581C103.085 42.054 104.188 41.1584 105.243 40.4713C105.562 40.2505 105.893 40.0665 106.236 39.9192C106.579 39.772 106.935 39.6984 107.303 39.6984C107.965 39.6984 108.296 39.956 108.296 40.4713C108.296 40.8639 108.063 41.3301 107.597 41.8699C107.033 42.5324 106.42 43.2685 105.758 44.0782C105.096 44.888 104.458 45.7099 103.845 46.5442C103.257 47.3784 102.766 48.1514 102.374 48.8629C102.006 49.5745 101.822 50.1511 101.822 50.5928C101.822 50.8381 101.883 51.0222 102.006 51.1449C102.153 51.243 102.276 51.2921 102.374 51.2921C102.742 51.2921 103.146 51.1449 103.588 50.8504C104.054 50.556 104.495 50.2125 104.912 49.8199C105.353 49.4027 105.733 49.0102 106.052 48.6421C106.396 48.274 106.616 48.0287 106.714 47.906C106.812 47.906 106.861 47.9796 106.861 48.1268C106.861 48.3477 106.812 48.5194 106.714 48.6421C106.371 49.0102 105.917 49.4641 105.353 50.0039C104.789 50.5437 104.188 51.0222 103.551 51.4393C102.913 51.8319 102.3 52.0282 101.712 52.0282Z" fill="white" fill-opacity="0.4"/>
<path d="M107.374 52.0282C106.467 52.0773 106.013 51.562 106.013 50.4824C106.013 49.8935 106.185 49.1942 106.528 48.3845C106.872 47.5502 107.387 46.6791 108.073 45.7713C108.613 45.0843 109.3 44.3359 110.133 43.5262C110.967 42.7164 111.875 41.9803 112.855 41.3178C113.836 40.6308 114.817 40.1401 115.798 39.8456C116.068 39.772 116.35 39.7229 116.644 39.6984C116.939 39.6493 117.294 39.6248 117.711 39.6248C118.104 39.6248 118.3 39.6739 118.3 39.772C118.3 39.8947 118.128 39.9929 117.785 40.0665C117.49 40.1401 117.135 40.2628 116.718 40.4345C116.301 40.6063 115.921 40.7903 115.578 40.9866C114.866 41.3792 114.118 41.919 113.334 42.606C112.549 43.2685 111.776 44.0292 111.016 44.888C110.182 45.8204 109.496 46.7405 108.956 47.6484C108.417 48.5317 108.061 49.2678 107.889 49.8567C107.84 50.053 107.816 50.2247 107.816 50.3719C107.816 50.7155 107.951 50.8872 108.221 50.8872C108.392 50.8872 108.625 50.8136 108.919 50.6664C109.214 50.4946 109.594 50.2125 110.06 49.8199C110.992 49.0347 111.924 48.1391 112.855 47.1331C113.812 46.1271 114.67 45.0843 115.43 44.0046C116.019 43.1704 116.706 42.287 117.49 41.3546C118.275 40.3977 119.097 39.4776 119.955 38.5942C120.813 37.6864 121.647 36.8644 122.456 36.1283C123.29 35.3922 124.038 34.8033 124.7 34.3616C125.461 33.8464 125.988 33.5519 126.282 33.4783C126.601 33.4047 126.871 33.3679 127.091 33.3679C126.871 33.5397 126.392 33.9813 125.657 34.6929C124.946 35.3799 124.087 36.251 123.082 37.3061C122.101 38.3611 121.071 39.5021 119.992 40.729C118.937 41.9558 117.969 43.1826 117.086 44.4095C116.399 45.3419 115.749 46.3111 115.136 47.3171C114.523 48.2986 114.118 49.0838 113.922 49.6726C113.849 49.8689 113.8 50.0407 113.775 50.1879C113.751 50.3351 113.738 50.4701 113.738 50.5928C113.738 50.9854 113.898 51.1817 114.217 51.1817C114.437 51.1817 114.695 51.0958 114.989 50.924C115.308 50.7277 115.627 50.5069 115.945 50.2615C116.362 49.918 116.767 49.5377 117.159 49.1206C117.576 48.7034 117.944 48.2986 118.263 47.906C118.361 47.906 118.41 47.9796 118.41 48.1268C118.41 48.3477 118.361 48.5194 118.263 48.6421C117.944 49.0102 117.552 49.415 117.086 49.8567C116.644 50.2983 116.203 50.6909 115.762 51.0344C115.443 51.3043 115.075 51.5374 114.658 51.7337C114.241 51.93 113.836 52.0282 113.444 52.0282C112.88 52.0282 112.475 51.8932 112.23 51.6233C112.009 51.3534 111.899 51.0099 111.899 50.5928C111.899 50.1757 111.985 49.7217 112.157 49.231C112.328 48.7402 112.537 48.2618 112.782 47.7956C112.365 48.2372 111.911 48.7157 111.421 49.231C110.93 49.7217 110.612 50.0284 110.464 50.1511C109.925 50.6418 109.41 51.0712 108.919 51.4393C108.429 51.7828 107.914 51.9791 107.374 52.0282Z" fill="white" fill-opacity="0.4"/>
</svg>
