<svg width="142" height="36" viewBox="0 0 142 36" fill="none" xmlns="http://www.w3.org/2000/svg">
<path d="M44.6669 17.7787C43.3495 17.7787 42.2298 17.688 41.3076 17.5067C40.3855 17.3253 39.628 17.0203 39.0352 16.5917C38.4589 16.1465 38.0308 15.5448 37.7508 14.7864C37.4873 14.028 37.3556 13.0718 37.3556 11.9177C37.3556 10.7307 37.4956 9.76623 37.7755 9.02433C38.0555 8.26595 38.4918 7.67244 39.0846 7.24379C39.6939 6.79865 40.4596 6.4854 41.3817 6.30405C42.3204 6.1227 43.4401 6.03202 44.741 6.03202C46.0419 6.03202 47.1534 6.1227 48.0755 6.30405C48.9977 6.4854 49.7469 6.79865 50.3232 7.24379C50.916 7.67244 51.3442 8.26595 51.6076 9.02433C51.8876 9.78271 52.0275 10.7472 52.0275 11.9177C52.0275 13.0883 51.8876 14.0527 51.6076 14.8111C51.3277 15.5695 50.8913 16.1713 50.2985 16.6164C49.7057 17.045 48.94 17.35 48.0014 17.5314C47.0793 17.6963 45.9678 17.7787 44.6669 17.7787ZM44.6916 15.6767C45.235 15.6767 45.7043 15.6272 46.0995 15.5283C46.5112 15.4129 46.8405 15.215 47.0875 14.9348C47.351 14.6545 47.5403 14.2753 47.6556 13.7972C47.7873 13.3026 47.8532 12.6761 47.8532 11.9177C47.8532 11.1429 47.7873 10.5164 47.6556 10.0383C47.5403 9.54366 47.351 9.16447 47.0875 8.90068C46.8405 8.62041 46.5112 8.43082 46.0995 8.3319C45.7043 8.21649 45.235 8.15879 44.6916 8.15879C44.1317 8.15879 43.6459 8.21649 43.2343 8.3319C42.8391 8.43082 42.518 8.62041 42.271 8.90068C42.024 9.16447 41.8346 9.54366 41.7029 10.0383C41.5711 10.5164 41.5052 11.1429 41.5052 11.9177C41.5052 12.6761 41.5711 13.3026 41.7029 13.7972C41.8346 14.2753 42.024 14.6545 42.271 14.9348C42.518 15.215 42.8391 15.4129 43.2343 15.5283C43.6459 15.6272 44.1317 15.6767 44.6916 15.6767ZM50.1503 19.7818C49.821 19.7818 49.4834 19.6994 49.1376 19.5345C48.8083 19.3861 48.4542 19.1306 48.0755 18.7679C47.8944 18.5865 47.6721 18.3392 47.4086 18.026C47.1616 17.7292 46.8817 17.3995 46.5688 17.0368C46.2724 16.6741 45.9595 16.3114 45.6302 15.9487C45.3173 15.5695 45.0044 15.2233 44.6916 14.91C44.3787 14.5968 44.0905 14.333 43.8271 14.1187C43.9094 13.8714 44.0411 13.6983 44.2223 13.5994C44.4199 13.4839 44.6175 13.4262 44.8151 13.4262C45.095 13.4262 45.342 13.4757 45.5561 13.5746C45.7866 13.6571 46.0666 13.8384 46.3959 14.1187C46.7417 14.399 47.0875 14.704 47.4333 15.0337C47.7791 15.3634 48.1167 15.7014 48.446 16.0476C48.7918 16.3938 49.1376 16.7318 49.4834 17.0615C49.8292 17.3748 50.1915 17.6715 50.5702 17.9518C50.949 18.2486 51.3524 18.5041 51.7805 18.7184C51.5994 19.0976 51.3689 19.3696 51.0889 19.5345C50.8255 19.6994 50.5126 19.7818 50.1503 19.7818Z" fill="white"/>
<path d="M67.5449 11.9672C67.5449 12.9399 67.4872 13.7889 67.372 14.5144C67.2732 15.2233 67.0097 15.8168 66.5816 16.2949C66.1534 16.7565 65.4783 17.1027 64.5561 17.3336C63.634 17.5479 62.3578 17.655 60.7276 17.655C59.3938 17.655 58.2988 17.5809 57.4425 17.4325C56.6027 17.2841 55.944 17.0615 55.4665 16.7648C55.0054 16.468 54.6678 16.1053 54.4538 15.6767C54.2397 15.248 54.108 14.7452 54.0586 14.1681C54.0256 13.5911 54.0092 12.9481 54.0092 12.2392V8.05987C54.0092 7.54879 54.0256 7.16135 54.0586 6.89757C54.0915 6.63378 54.215 6.46067 54.4291 6.37824C54.6431 6.27932 55.0054 6.22986 55.5159 6.22986H58.06V13.0306C58.06 13.723 58.1506 14.2423 58.3317 14.5885C58.5128 14.9348 58.801 15.1656 59.1962 15.281C59.5914 15.3799 60.1019 15.4294 60.7276 15.4294C61.7321 15.4294 62.4402 15.2563 62.8518 14.91C63.2635 14.5638 63.4693 13.9456 63.4693 13.0553V6.22986H65.9888C66.5157 6.22986 66.8862 6.27932 67.1003 6.37824C67.3143 6.46067 67.4378 6.63378 67.4708 6.89757C67.5202 7.16135 67.5449 7.54879 67.5449 8.05987V11.9672Z" fill="white"/>
<path d="M68.7936 17.6056L72.7209 8.15879C72.9844 7.51581 73.3631 7.02122 73.8571 6.675C74.3511 6.3123 75.1251 6.13094 76.1789 6.13094C77.0517 6.13094 77.7598 6.29581 78.3032 6.62554C78.8466 6.95527 79.2582 7.46635 79.5382 8.15879L83.4902 17.6056H79.0936L78.0315 15.0584H72.8938L71.9058 17.6056H68.7936ZM73.536 13.5004H77.2905L75.9566 10.0383C75.9072 9.90636 75.8496 9.79096 75.7838 9.69204C75.7179 9.57663 75.6026 9.51893 75.438 9.51893C75.2568 9.51893 75.1251 9.57663 75.0427 9.69204C74.9769 9.79096 74.9192 9.90636 74.8698 10.0383L73.536 13.5004Z" fill="white"/>
<path d="M81.8036 6.22986H95.4382V8.38136H90.671V16.2702C90.671 16.7977 90.5887 17.1522 90.424 17.3336C90.2594 17.5149 89.8889 17.6056 89.3125 17.6056H86.5955V8.38136H81.8036V6.22986Z" fill="white"/>
<path d="M96.3247 6.22986H109.959V8.38136H105.192V16.2702C105.192 16.7977 105.11 17.1522 104.945 17.3336C104.78 17.5149 104.41 17.6056 103.834 17.6056H101.117V8.38136H96.3247V6.22986Z" fill="white"/>
<path d="M118.997 13.7725C118.997 13.7725 118.832 13.7725 118.503 13.7725C118.19 13.7725 117.786 13.7807 117.292 13.7972C116.798 13.7972 116.288 13.7972 115.761 13.7972V17.6056H111.71V7.73838C111.71 7.26027 111.817 6.88932 112.031 6.62554C112.245 6.36175 112.682 6.22986 113.34 6.22986C113.587 6.22986 113.958 6.22986 114.452 6.22986C114.946 6.21338 115.514 6.20513 116.156 6.20513C116.798 6.20513 117.457 6.20513 118.132 6.20513C118.824 6.18865 119.483 6.18865 120.108 6.20513C120.734 6.20513 121.277 6.21338 121.738 6.22986C122.216 6.22986 122.562 6.23811 122.776 6.25459C123.665 6.33703 124.332 6.60905 124.777 7.07068C125.221 7.51581 125.444 8.24947 125.444 9.27163C125.444 10.1949 125.369 10.8708 125.221 11.2995C125.089 11.7116 124.867 12.0331 124.554 12.2639C124.439 12.3464 124.283 12.4123 124.085 12.4618C123.887 12.5112 123.665 12.536 123.418 12.536V12.6349C123.533 12.6349 123.657 12.6349 123.789 12.6349C123.937 12.6349 124.06 12.6431 124.159 12.6596C124.785 12.775 125.155 13.0141 125.271 13.3768C125.402 13.7395 125.468 14.1187 125.468 14.5144V16.6906C125.468 17.0038 125.501 17.2346 125.567 17.383C125.633 17.5149 125.674 17.5891 125.691 17.6056H122.677C122.249 17.6056 121.911 17.5396 121.664 17.4077C121.434 17.2759 121.319 16.9956 121.319 16.5669V14.9348C121.319 14.4237 121.203 14.1022 120.973 13.9703C120.759 13.8384 120.372 13.7725 119.812 13.7725H118.997ZM115.761 11.8435C115.942 11.8435 116.214 11.8518 116.576 11.8683C116.955 11.8683 117.367 11.8683 117.811 11.8683C118.256 11.8683 118.659 11.8683 119.021 11.8683C119.4 11.8683 119.672 11.8683 119.837 11.8683C120.232 11.8683 120.578 11.7446 120.874 11.4973C121.187 11.2335 121.343 10.7472 121.343 10.0383C121.343 9.54366 121.253 9.15623 121.072 8.87595C120.907 8.59568 120.627 8.43906 120.232 8.40609C120.001 8.35663 119.688 8.3319 119.293 8.3319C118.914 8.3319 118.511 8.3319 118.083 8.3319C117.671 8.3319 117.292 8.34014 116.947 8.35663C116.601 8.35663 116.346 8.35663 116.181 8.35663C116.148 8.35663 116.066 8.38136 115.934 8.43082C115.819 8.48028 115.761 8.60393 115.761 8.80177V11.8435Z" fill="white"/>
<path d="M134.639 17.7787C133.322 17.7787 132.202 17.688 131.28 17.5067C130.358 17.3253 129.6 17.0203 129.008 16.5917C128.431 16.1465 128.003 15.5448 127.723 14.7864C127.46 14.028 127.328 13.0718 127.328 11.9177C127.328 10.7307 127.468 9.76623 127.748 9.02433C128.028 8.26595 128.464 7.67244 129.057 7.24379C129.666 6.79865 130.432 6.4854 131.354 6.30405C132.293 6.1227 133.413 6.03202 134.713 6.03202C136.014 6.03202 137.126 6.1227 138.048 6.30405C138.97 6.4854 139.719 6.79865 140.296 7.24379C140.888 7.67244 141.317 8.26595 141.58 9.02433C141.86 9.78271 142 10.7472 142 11.9177C142 13.0883 141.86 14.0527 141.58 14.8111C141.3 15.5695 140.864 16.1713 140.271 16.6164C139.678 17.045 138.912 17.35 137.974 17.5314C137.052 17.6963 135.94 17.7787 134.639 17.7787ZM134.664 15.6767C135.207 15.6767 135.677 15.6272 136.072 15.5283C136.484 15.4129 136.813 15.215 137.06 14.9348C137.323 14.6545 137.513 14.2753 137.628 13.7972C137.76 13.3026 137.826 12.6761 137.826 11.9177C137.826 11.1429 137.76 10.5164 137.628 10.0383C137.513 9.54366 137.323 9.16447 137.06 8.90068C136.813 8.62041 136.484 8.43082 136.072 8.3319C135.677 8.21649 135.207 8.15879 134.664 8.15879C134.104 8.15879 133.618 8.21649 133.207 8.3319C132.812 8.43082 132.49 8.62041 132.243 8.90068C131.996 9.16447 131.807 9.54366 131.675 10.0383C131.544 10.5164 131.478 11.1429 131.478 11.9177C131.478 12.6761 131.544 13.3026 131.675 13.7972C131.807 14.2753 131.996 14.6545 132.243 14.9348C132.49 15.215 132.812 15.4129 133.207 15.5283C133.618 15.6272 134.104 15.6767 134.664 15.6767Z" fill="white"/>
<path d="M26.0437 7.81181L29.6898 9.88945V20.4075L15.8866 28.3284V35.6001L12.1103 33.5225V26.2508L26.0437 18.0783V7.81181Z" fill="white"/>
<path d="M17.8399 29.4971V34.821L20.7047 33.2628V27.9389L17.8399 29.4971Z" fill="white"/>
<path d="M22.3976 26.9001V32.224L25.2624 30.6658V25.3418L22.3976 26.9001Z" fill="white"/>
<path d="M26.825 24.303V29.627L29.6898 28.0687V22.7448L26.825 24.303Z" fill="white"/>
<path d="M19.9234 4.30581L23.5695 6.38344V16.1223L9.76638 24.0433V32.0941L5.99005 30.0165V21.9657L19.9234 14.3044V4.30581Z" fill="white"/>
<path d="M13.9334 0.799805L17.5795 2.87744V11.8372L3.77633 19.7582V28.718L0 26.6404V17.6806L13.9334 10.0193V0.799805Z" fill="white"/>
<path d="M9.11529 3.26699V10.0193L11.8499 8.46107V1.57892L9.11529 3.26699Z" fill="white"/>
<path d="M4.55764 5.86403V12.6163L7.29223 11.0581V4.17596L4.55764 5.86403Z" fill="white"/>
<path d="M0 8.46107V15.2134L2.73459 13.6552V6.773L0 8.46107Z" fill="white"/>
<path d="M39.4252 30.733C39.1407 30.733 38.8633 30.7045 38.5931 30.6476C38.3371 30.5907 38.1095 30.491 37.9103 30.3487C37.7539 30.2349 37.6259 30.0783 37.5263 29.8791C37.4125 29.6798 37.3556 29.4237 37.3556 29.1106C37.3556 28.7406 37.4481 28.4559 37.633 28.2567C37.8037 28.0574 37.9886 27.9578 38.1877 27.9578C38.3442 27.7586 38.5575 27.4811 38.8278 27.1253C39.098 26.7553 39.3967 26.3497 39.7239 25.9085C40.0652 25.4673 40.4137 25.0261 40.7693 24.5849C41.1249 24.1295 41.4592 23.7239 41.7721 23.3682C41.9712 23.1689 42.1775 22.9554 42.3908 22.7277C42.6184 22.5 42.8673 22.3079 43.1376 22.1514C43.4221 21.9806 43.7208 21.8952 44.0337 21.8952C44.2755 21.8952 44.4462 21.9521 44.5457 22.066C44.6595 22.1798 44.7164 22.315 44.7164 22.4716C44.7164 22.557 44.6951 22.6352 44.6524 22.7064C44.496 22.6779 44.2755 22.7064 43.991 22.7918C43.7065 22.8629 43.3936 22.9981 43.0522 23.1974C42.6824 23.4251 42.3055 23.7097 41.9215 24.0513C41.9072 24.222 41.8859 24.4853 41.8574 24.8411C41.8432 25.1827 41.8219 25.574 41.7934 26.0152C41.765 26.4422 41.7152 26.8762 41.6441 27.3174C41.5872 27.7443 41.509 28.1215 41.4094 28.4488C41.3383 28.6765 41.2245 28.9327 41.068 29.2173C40.9116 29.4877 40.6982 29.7439 40.428 29.9858C40.1719 30.2135 39.8519 30.3701 39.4678 30.4555C39.9799 30.4555 40.4066 30.3772 40.748 30.2206C41.0894 30.0641 41.3738 29.8862 41.6014 29.6869C41.8432 29.4735 42.0352 29.3027 42.1775 29.1746C42.2913 29.0608 42.4477 28.8971 42.6469 28.6836C42.846 28.4702 42.9882 28.3136 43.0736 28.214C43.1305 28.214 43.1589 28.2567 43.1589 28.3421C43.1589 28.4702 43.1305 28.5698 43.0736 28.6409C42.4762 29.2814 41.9783 29.751 41.5801 30.0499C41.2245 30.3203 40.8618 30.4981 40.492 30.5835C40.1221 30.6832 39.7665 30.733 39.4252 30.733ZM38.6784 30.3274C38.9202 30.3274 39.1407 30.2349 39.3398 30.0499C39.5532 29.8506 39.7452 29.6229 39.9159 29.3667C40.0866 29.0963 40.2217 28.8473 40.3213 28.6196C40.4777 28.278 40.6413 27.844 40.812 27.3174C40.9827 26.7908 41.1463 26.2572 41.3027 25.7164C41.4592 25.1613 41.5872 24.6846 41.6868 24.2861C41.2885 24.6703 40.8902 25.0902 40.492 25.5456C40.1079 26.001 39.7523 26.435 39.4252 26.8478C39.098 27.2605 38.8278 27.602 38.6144 27.8724C38.4295 28.1144 38.2873 28.3705 38.1877 28.6409C38.0881 28.9113 38.0384 29.1675 38.0384 29.4094C38.0384 29.6798 38.0952 29.9004 38.209 30.0712C38.3228 30.242 38.4793 30.3274 38.6784 30.3274Z" fill="white"/>
<path d="M43.9037 30.6903C43.4912 30.6903 43.1996 30.5907 43.0289 30.3914C42.844 30.1779 42.7515 29.9147 42.7515 29.6016C42.7515 29.2031 42.8653 28.7334 43.0929 28.1926C43.3347 27.6518 43.6548 27.1039 44.053 26.5489C44.4513 25.9939 44.8993 25.4815 45.3972 25.0119C45.895 24.528 46.3999 24.1438 46.912 23.8591C47.4383 23.5603 47.9432 23.4108 48.4268 23.4108C48.7824 23.4108 49.0385 23.5034 49.1949 23.6884C49.3514 23.8734 49.4296 24.1153 49.4296 24.4142C49.4296 24.8127 49.3158 25.2894 49.0882 25.8444C48.8607 26.3852 48.5477 26.9403 48.1495 27.5095C47.7654 28.0646 47.3316 28.584 46.848 29.0679C46.3786 29.5518 45.8879 29.9431 45.3758 30.242C44.8638 30.5408 44.3731 30.6903 43.9037 30.6903ZM44.1597 30.2847C44.4584 30.2847 44.814 30.1352 45.2265 29.8364C45.6532 29.5233 46.087 29.1248 46.528 28.6409C46.9689 28.1571 47.3743 27.6447 47.7441 27.1039C48.1281 26.5489 48.4339 26.0294 48.6615 25.5456C48.9033 25.0475 49.0242 24.6419 49.0242 24.3288C49.0242 23.9872 48.8607 23.8164 48.5335 23.8164C48.2633 23.8164 47.9219 23.9801 47.5094 24.3074C47.1111 24.6205 46.6915 25.0261 46.2506 25.5242C45.8239 26.0223 45.4185 26.5489 45.0345 27.1039C44.6504 27.659 44.3375 28.1855 44.0957 28.6836C43.8681 29.1817 43.7543 29.5731 43.7543 29.8577C43.7543 30.1424 43.8894 30.2847 44.1597 30.2847Z" fill="white"/>
<path d="M49.0416 30.5835C48.7002 30.5835 48.4584 30.5053 48.3162 30.3487C48.1739 30.1922 48.1028 29.9929 48.1028 29.751C48.1028 29.5091 48.1597 29.2458 48.2735 28.9611C48.3731 28.6623 48.5011 28.3705 48.6575 28.0859C48.9278 27.6305 49.2336 27.1751 49.575 26.7197C49.9306 26.25 50.2862 25.816 50.6417 25.4175C51.0116 25.019 51.3387 24.6775 51.6232 24.3928C51.8934 24.1224 52.1708 23.9232 52.4553 23.7951C52.7398 23.667 52.9816 23.5816 53.1807 23.5389C53.394 23.482 53.5007 23.4535 53.5007 23.4535C53.1878 23.8093 52.7611 24.3146 52.2206 24.9692C51.6943 25.6238 51.1609 26.3212 50.6204 27.0612C50.5635 27.1324 50.4568 27.2818 50.3004 27.5095C50.1581 27.7372 50.0017 27.9934 49.831 28.278C49.6603 28.5484 49.511 28.8188 49.3829 29.0892C49.2691 29.3454 49.2123 29.5517 49.2123 29.7083C49.2123 29.8648 49.2976 29.936 49.4683 29.9218C49.6532 29.9075 49.895 29.7723 50.1937 29.5162C50.4924 29.26 50.8124 28.9469 51.1538 28.5769C51.4952 28.2069 51.8152 27.844 52.1139 27.4882C52.4268 27.1182 52.6829 26.8122 52.882 26.5702C53.0385 26.3852 53.2305 26.1575 53.4581 25.8871C53.6856 25.6025 53.9203 25.3108 54.1621 25.0119C54.4039 24.713 54.6244 24.4497 54.8235 24.222C55.0511 23.9659 55.2929 23.788 55.549 23.6884C55.805 23.5745 56.0254 23.5105 56.2104 23.4962C56.4095 23.4678 56.5091 23.4535 56.5091 23.4535C56.3953 23.5959 56.1677 23.8734 55.8263 24.2861C55.4992 24.6988 55.1294 25.1898 54.7169 25.759C54.3044 26.3141 53.9132 26.8976 53.5434 27.5095C53.1736 28.1073 52.8891 28.6765 52.69 29.2173C52.5904 29.4592 52.5406 29.6585 52.5406 29.815C52.5406 29.9573 52.5762 30.057 52.6473 30.1139C52.7184 30.1566 52.7966 30.1779 52.882 30.1779C53.0811 30.1779 53.3016 30.0925 53.5434 29.9218C53.7994 29.751 54.0412 29.5518 54.2688 29.324C54.5106 29.0821 54.724 28.8544 54.9089 28.6409C55.0938 28.4275 55.2147 28.2851 55.2716 28.214C55.3285 28.214 55.3569 28.2567 55.3569 28.3421C55.3569 28.4702 55.3285 28.5698 55.2716 28.6409C55.0582 28.8971 54.7951 29.1746 54.4822 29.4735C54.1835 29.7723 53.8634 30.0356 53.5221 30.2633C53.1949 30.4768 52.8678 30.5835 52.5406 30.5835C52.185 30.5835 51.9361 30.4981 51.7939 30.3274C51.6516 30.1566 51.5805 29.9431 51.5805 29.6869C51.5805 29.445 51.6303 29.1817 51.7299 28.8971C51.8294 28.5982 51.9503 28.3207 52.0926 28.0646C51.9219 28.2353 51.7156 28.463 51.4738 28.7477C51.2463 29.0181 50.9902 29.2956 50.7058 29.5802C50.4213 29.8648 50.1368 30.1068 49.8523 30.306C49.5678 30.491 49.2976 30.5835 49.0416 30.5835Z" fill="white"/>
<path d="M58.6523 30.6049C58.3536 30.6049 58.1402 30.5266 58.0122 30.3701C57.8842 30.1993 57.8202 29.9858 57.8202 29.7296C57.8202 29.3454 57.9553 28.9113 58.2256 28.4275C58.4958 27.9294 58.8443 27.4099 59.271 26.8691C59.712 26.3283 60.1671 25.7946 60.6365 25.2681C61.1201 24.7415 61.5753 24.2576 62.002 23.8164C61.7886 23.8164 61.5539 23.8734 61.2979 23.9872C61.0561 24.1011 60.8072 24.2363 60.5512 24.3928C60.1671 24.649 59.7475 24.9905 59.2924 25.4175C58.8372 25.8444 58.382 26.2998 57.9269 26.7837C57.4717 27.2676 57.0379 27.7443 56.6254 28.214C56.2983 28.5982 56.0351 28.9184 55.836 29.1746C55.6511 29.4308 55.4875 29.6656 55.3453 29.8791C55.2172 30.0783 55.075 30.306 54.9185 30.5622C54.691 30.5622 54.5772 30.427 54.5772 30.1566C54.5772 29.872 54.6696 29.5304 54.8545 29.1319C55.0252 28.7334 55.1746 28.4203 55.3026 28.1926C55.6724 27.5665 56.092 26.9118 56.5614 26.2287C57.045 25.5313 57.4931 24.9194 57.9055 24.3928C58.1189 24.1082 58.3465 23.9018 58.5883 23.7738C58.8301 23.6314 59.0363 23.546 59.207 23.5176C59.3777 23.4749 59.4631 23.4535 59.4631 23.4535C59.3777 23.5816 59.1999 23.852 58.9297 24.2647C58.6594 24.6775 58.3465 25.1613 57.9909 25.7164C57.6353 26.2714 57.2726 26.8335 56.9028 27.4028C57.4859 26.7339 58.1118 26.0864 58.7803 25.4602C59.4488 24.8198 60.0889 24.3003 60.7005 23.9018C60.8854 23.7738 61.0774 23.667 61.2766 23.5816C61.4757 23.4962 61.682 23.4535 61.8953 23.4535C62.2794 23.4535 62.4714 23.603 62.4714 23.9018C62.4714 24.1295 62.3363 24.3999 62.066 24.713C61.7389 25.0973 61.3833 25.5242 60.9992 25.9939C60.6152 26.4635 60.2454 26.9403 59.8898 27.4241C59.5484 27.908 59.2639 28.3563 59.0363 28.769C58.823 29.1817 58.7163 29.5162 58.7163 29.7723C58.7163 29.9147 58.7519 30.0214 58.823 30.0925C58.9083 30.1495 58.9794 30.1779 59.0363 30.1779C59.2497 30.1779 59.4844 30.0925 59.7404 29.9218C60.0107 29.751 60.2667 29.5518 60.5085 29.324C60.7645 29.0821 60.985 28.8544 61.1699 28.6409C61.369 28.4275 61.4971 28.2851 61.5539 28.214C61.6108 28.214 61.6393 28.2567 61.6393 28.3421C61.6393 28.4702 61.6108 28.5698 61.5539 28.6409C61.3548 28.8544 61.0917 29.1177 60.7645 29.4308C60.4374 29.7439 60.0889 30.0214 59.7191 30.2633C59.3493 30.491 58.9937 30.6049 58.6523 30.6049Z" fill="white"/>
<path d="M61.9368 30.6049C61.4105 30.6333 61.1474 30.3345 61.1474 29.7083C61.1474 29.3667 61.247 28.9611 61.4461 28.4915C61.6452 28.0076 61.9439 27.5024 62.3422 26.9758C62.6551 26.5774 63.0534 26.1433 63.537 25.6737C64.0206 25.204 64.5469 24.7771 65.1158 24.3928C65.6848 23.9943 66.2537 23.7097 66.8227 23.5389C66.9792 23.4962 67.1427 23.4678 67.3134 23.4535C67.4841 23.4251 67.6903 23.4108 67.9322 23.4108C68.1597 23.4108 68.2735 23.4393 68.2735 23.4962C68.2735 23.5674 68.174 23.6243 67.9748 23.667C67.8041 23.7097 67.5979 23.7809 67.3561 23.8805C67.1143 23.9801 66.8938 24.0868 66.6947 24.2007C66.2822 24.4284 65.8484 24.7415 65.3932 25.14C64.938 25.5242 64.49 25.9654 64.0491 26.4635C63.5654 27.0043 63.1672 27.538 62.8543 28.0646C62.5413 28.5769 62.3351 29.0038 62.2355 29.3454C62.2071 29.4592 62.1929 29.5589 62.1929 29.6443C62.1929 29.8435 62.2711 29.9431 62.4275 29.9431C62.5271 29.9431 62.6622 29.9004 62.8329 29.815C63.0036 29.7154 63.2241 29.5518 63.4943 29.324C64.0348 28.8686 64.5753 28.3492 65.1158 27.7657C65.6706 27.1822 66.1684 26.5774 66.6093 25.9512C66.9507 25.4673 67.349 24.955 67.8041 24.4142C68.2593 23.8591 68.7358 23.3255 69.2336 22.8131C69.7315 22.2866 70.2151 21.8098 70.6845 21.3829C71.1681 20.9559 71.6019 20.6144 71.9859 20.3582C72.4269 20.0593 72.7327 19.8885 72.9034 19.8459C73.0883 19.8032 73.2447 19.7818 73.3727 19.7818C73.2447 19.8814 72.9674 20.1376 72.5407 20.5503C72.1282 20.9488 71.6303 21.454 71.0472 22.066C70.4782 22.6779 69.8808 23.3397 69.255 24.0513C68.6433 24.7628 68.0815 25.4744 67.5694 26.186C67.1712 26.7268 66.7943 27.2889 66.4387 27.8724C66.0831 28.4417 65.8484 28.8971 65.7346 29.2387C65.6919 29.3525 65.6635 29.4521 65.6492 29.5375C65.635 29.6229 65.6279 29.7012 65.6279 29.7723C65.6279 30 65.7204 30.1139 65.9053 30.1139C66.0333 30.1139 66.1826 30.0641 66.3533 29.9645C66.5382 29.8506 66.7231 29.7225 66.908 29.5802C67.1498 29.381 67.3845 29.1604 67.6121 28.9184C67.8539 28.6765 68.0673 28.4417 68.2522 28.214C68.3091 28.214 68.3375 28.2567 68.3375 28.3421C68.3375 28.4702 68.3091 28.5698 68.2522 28.6409C68.0673 28.8544 67.8397 29.0892 67.5694 29.3454C67.3134 29.6016 67.0574 29.8293 66.8014 30.0285C66.6164 30.1851 66.4031 30.3203 66.1613 30.4341C65.9195 30.548 65.6848 30.6049 65.4572 30.6049C65.1301 30.6049 64.8954 30.5266 64.7531 30.3701C64.6251 30.2135 64.5611 30.0143 64.5611 29.7723C64.5611 29.5304 64.6109 29.2671 64.7105 28.9825C64.81 28.6979 64.9309 28.4203 65.0732 28.1499C64.8314 28.4061 64.5682 28.6836 64.2837 28.9825C63.9993 29.2671 63.8144 29.445 63.729 29.5162C63.4161 29.8008 63.1174 30.0499 62.8329 30.2633C62.5484 30.4626 62.2497 30.5764 61.9368 30.6049Z" fill="white"/>
</svg>
