<svg width="200" height="50" viewBox="0 0 200 50" fill="none" xmlns="http://www.w3.org/2000/svg">
<path d="M62.9111 24.4066C61.0557 24.4066 59.4786 24.2789 58.1798 24.0235C56.881 23.768 55.8141 23.3385 54.9792 22.7347C54.1674 22.1078 53.5644 21.2602 53.1702 20.1921C52.7991 19.1239 52.6135 17.7772 52.6135 16.1517C52.6135 14.4798 52.8107 13.1214 53.205 12.0765C53.5992 11.0084 54.2138 10.1724 55.0488 9.56871C55.9069 8.94176 56.9854 8.50057 58.2842 8.24514C59.6061 7.98971 61.1832 7.862 63.0155 7.862C64.8477 7.862 66.4132 7.98971 67.712 8.24514C69.0108 8.50057 70.066 8.94176 70.8778 9.56871C71.7127 10.1724 72.3157 11.0084 72.6868 12.0765C73.0811 13.1447 73.2782 14.5031 73.2782 16.1517C73.2782 17.8004 73.0811 19.1588 72.6868 20.2269C72.2925 21.2951 71.6779 22.1426 70.843 22.7696C70.0081 23.3733 68.9296 23.8029 67.6076 24.0583C66.3088 24.2905 64.7433 24.4066 62.9111 24.4066ZM62.9459 21.446C63.7112 21.446 64.3722 21.3763 64.9289 21.237C65.5087 21.0745 65.9725 20.7958 66.3204 20.4011C66.6915 20.0063 66.9582 19.4723 67.1206 18.7989C67.3061 18.1022 67.3989 17.2199 67.3989 16.1517C67.3989 15.0604 67.3061 14.178 67.1206 13.5046C66.9582 12.808 66.6915 12.2739 66.3204 11.9024C65.9725 11.5076 65.5087 11.2406 64.9289 11.1013C64.3722 10.9387 63.7112 10.8574 62.9459 10.8574C62.1573 10.8574 61.4732 10.9387 60.8933 11.1013C60.3367 11.2406 59.8844 11.5076 59.5366 11.9024C59.1887 12.2739 58.922 12.808 58.7364 13.5046C58.5509 14.178 58.4581 15.0604 58.4581 16.1517C58.4581 17.2199 58.5509 18.1022 58.7364 18.7989C58.922 19.4723 59.1887 20.0063 59.5366 20.4011C59.8844 20.7958 60.3367 21.0745 60.8933 21.237C61.4732 21.3763 62.1573 21.446 62.9459 21.446ZM70.6343 27.2279C70.1704 27.2279 69.695 27.1118 69.2079 26.8796C68.7441 26.6706 68.2454 26.3107 67.712 25.7998C67.4569 25.5444 67.1438 25.1961 66.7727 24.7549C66.4248 24.3369 66.0305 23.8725 65.5899 23.3617C65.1724 22.8508 64.7317 22.34 64.2679 21.8291C63.8272 21.2951 63.3865 20.8074 62.9459 20.3662C62.5052 19.9251 62.0994 19.5535 61.7283 19.2517C61.8442 18.9034 62.0298 18.6595 62.2849 18.5202C62.5632 18.3577 62.8415 18.2764 63.1198 18.2764C63.5141 18.2764 63.862 18.3461 64.1635 18.4854C64.4882 18.6015 64.8825 18.8569 65.3463 19.2517C65.8334 19.6464 66.3204 20.076 66.8075 20.5404C67.2945 21.0048 67.77 21.4808 68.2338 21.9685C68.7209 22.4561 69.2079 22.9321 69.695 23.3965C70.182 23.8377 70.6922 24.2557 71.2257 24.6504C71.7591 25.0684 72.3273 25.4283 72.9303 25.7302C72.6752 26.2643 72.3505 26.6474 71.9562 26.8796C71.5852 27.1118 71.1445 27.2279 70.6343 27.2279Z" fill="white"/>
<path d="M95.1336 16.2214C95.1336 17.5914 95.0524 18.7873 94.8901 19.809C94.7509 20.8074 94.3799 21.6434 93.7769 22.3168C93.1738 22.9669 92.2229 23.4546 90.9242 23.7797C89.6254 24.0815 87.8279 24.2325 85.5319 24.2325C83.6532 24.2325 82.1109 24.128 80.9049 23.919C79.7221 23.71 78.7944 23.3965 78.1218 22.9786C77.4724 22.5606 76.9969 22.0497 76.6954 21.446C76.3939 20.8423 76.2084 20.134 76.1388 19.3213C76.0924 18.5086 76.0692 17.603 76.0692 16.6045V10.7181C76.0692 9.99829 76.0924 9.45261 76.1388 9.08108C76.1852 8.70955 76.3591 8.46573 76.6606 8.34963C76.9622 8.21031 77.4724 8.14065 78.1914 8.14065H81.7746V17.7191C81.7746 18.6944 81.9022 19.4258 82.1573 19.9134C82.4124 20.4011 82.8183 20.7262 83.3749 20.8887C83.9316 21.028 84.6505 21.0977 85.5319 21.0977C86.9466 21.0977 87.9439 20.8539 88.5237 20.3662C89.1035 19.8786 89.3934 19.0078 89.3934 17.7539V8.14065H92.9419C93.6841 8.14065 94.2059 8.21031 94.5074 8.34963C94.8089 8.46573 94.9829 8.70955 95.0293 9.08108C95.0988 9.45261 95.1336 9.99829 95.1336 10.7181V16.2214Z" fill="white"/>
<path d="M96.8924 24.1628L102.424 10.8574C102.795 9.95185 103.328 9.25523 104.024 8.7676C104.72 8.25675 105.81 8.00132 107.294 8.00132C108.524 8.00132 109.521 8.23353 110.286 8.69794C111.052 9.16235 111.631 9.88219 112.026 10.8574L117.592 24.1628H111.399L109.903 20.5752H102.667L101.276 24.1628H96.8924ZM103.572 18.3809H108.86L106.981 13.5046C106.912 13.3188 106.83 13.1563 106.738 13.017C106.645 12.8544 106.483 12.7731 106.251 12.7731C105.996 12.7731 105.81 12.8544 105.694 13.017C105.601 13.1563 105.52 13.3188 105.45 13.5046L103.572 18.3809Z" fill="white"/>
<path d="M115.216 8.14065H134.42V11.1709H127.706V22.2819C127.706 23.025 127.59 23.5242 127.358 23.7797C127.126 24.0351 126.604 24.1628 125.792 24.1628H121.965V11.1709H115.216V8.14065Z" fill="white"/>
<path d="M135.669 8.14065H154.872V11.1709H148.158V22.2819C148.158 23.025 148.042 23.5242 147.81 23.7797C147.578 24.0351 147.056 24.1628 146.244 24.1628H142.418V11.1709H135.669V8.14065Z" fill="white"/>
<path d="M167.601 18.764C167.601 18.764 167.369 18.764 166.905 18.764C166.465 18.764 165.896 18.7756 165.201 18.7989C164.505 18.7989 163.786 18.7989 163.044 18.7989V24.1628H157.338V10.2653C157.338 9.59193 157.489 9.06947 157.791 8.69794C158.092 8.32641 158.707 8.14065 159.634 8.14065C159.982 8.14065 160.504 8.14065 161.2 8.14065C161.896 8.11743 162.696 8.10582 163.6 8.10582C164.505 8.10582 165.433 8.10582 166.383 8.10582C167.358 8.0826 168.285 8.0826 169.167 8.10582C170.048 8.10582 170.813 8.11743 171.463 8.14065C172.135 8.14065 172.622 8.15226 172.924 8.17548C174.176 8.29158 175.116 8.67472 175.742 9.32489C176.368 9.95185 176.681 10.9852 176.681 12.4248C176.681 13.7252 176.577 14.6772 176.368 15.281C176.182 15.8615 175.869 16.3143 175.429 16.6394C175.266 16.7555 175.046 16.8483 174.768 16.918C174.489 16.9877 174.176 17.0225 173.828 17.0225V17.1618C173.991 17.1618 174.165 17.1618 174.35 17.1618C174.559 17.1618 174.733 17.1734 174.872 17.1966C175.753 17.3592 176.275 17.6959 176.438 18.2067C176.623 18.7176 176.716 19.2517 176.716 19.809V22.8741C176.716 23.3152 176.762 23.6403 176.855 23.8493C176.948 24.0351 177.006 24.1396 177.029 24.1628H172.785C172.182 24.1628 171.706 24.0699 171.358 23.8842C171.034 23.6984 170.871 23.3036 170.871 22.6999V20.4011C170.871 19.6812 170.709 19.2284 170.384 19.0427C170.083 18.8569 169.538 18.764 168.749 18.764H167.601ZM163.044 16.0472C163.299 16.0472 163.682 16.0588 164.192 16.0821C164.725 16.0821 165.305 16.0821 165.931 16.0821C166.557 16.0821 167.126 16.0821 167.636 16.0821C168.169 16.0821 168.552 16.0821 168.784 16.0821C169.341 16.0821 169.828 15.9079 170.245 15.5596C170.686 15.1881 170.906 14.5031 170.906 13.5046C170.906 12.808 170.778 12.2623 170.523 11.8675C170.291 11.4728 169.897 11.2522 169.341 11.2058C169.016 11.1361 168.575 11.1013 168.019 11.1013C167.485 11.1013 166.917 11.1013 166.314 11.1013C165.734 11.1013 165.201 11.1129 164.714 11.1361C164.227 11.1361 163.867 11.1361 163.635 11.1361C163.589 11.1361 163.473 11.1709 163.287 11.2406C163.125 11.3102 163.044 11.4844 163.044 11.763V16.0472Z" fill="white"/>
<path d="M189.633 24.4066C187.777 24.4066 186.2 24.2789 184.902 24.0235C183.603 23.768 182.536 23.3385 181.701 22.7347C180.889 22.1078 180.286 21.2602 179.892 20.1921C179.521 19.1239 179.335 17.7772 179.335 16.1517C179.335 14.4798 179.532 13.1214 179.927 12.0765C180.321 11.0084 180.936 10.1724 181.771 9.56871C182.629 8.94176 183.707 8.50057 185.006 8.24514C186.328 7.98971 187.905 7.862 189.737 7.862C191.569 7.862 193.135 7.98971 194.434 8.24514C195.733 8.50057 196.788 8.94176 197.6 9.56871C198.434 10.1724 199.038 11.0084 199.409 12.0765C199.803 13.1447 200 14.5031 200 16.1517C200 17.8004 199.803 19.1588 199.409 20.2269C199.014 21.2951 198.4 22.1426 197.565 22.7696C196.73 23.3733 195.651 23.8029 194.329 24.0583C193.031 24.2905 191.465 24.4066 189.633 24.4066ZM189.668 21.446C190.433 21.446 191.094 21.3763 191.651 21.237C192.23 21.0745 192.694 20.7958 193.042 20.4011C193.413 20.0063 193.68 19.4723 193.842 18.7989C194.028 18.1022 194.121 17.2199 194.121 16.1517C194.121 15.0604 194.028 14.178 193.842 13.5046C193.68 12.808 193.413 12.2739 193.042 11.9024C192.694 11.5076 192.23 11.2406 191.651 11.1013C191.094 10.9387 190.433 10.8574 189.668 10.8574C188.879 10.8574 188.195 10.9387 187.615 11.1013C187.058 11.2406 186.606 11.5076 186.258 11.9024C185.91 12.2739 185.644 12.808 185.458 13.5046C185.273 14.178 185.18 15.0604 185.18 16.1517C185.18 17.2199 185.273 18.1022 185.458 18.7989C185.644 19.4723 185.91 20.0063 186.258 20.4011C186.606 20.7958 187.058 21.0745 187.615 21.237C188.195 21.3763 188.879 21.446 189.668 21.446Z" fill="white"/>
<path d="M52.6355 41.7061C52.928 41.9108 53.3082 42.0644 53.7762 42.1667C54.2588 42.2691 54.7487 42.3349 55.2459 42.3642C55.7578 42.3788 56.2038 42.3861 56.5841 42.3861C56.7303 42.3861 56.8839 42.3861 57.0447 42.3861C57.2056 42.3861 57.3592 42.3788 57.5054 42.3642C58.1489 42.3495 58.7119 42.2764 59.1945 42.1448C59.6771 42.0132 60.0574 41.7792 60.3352 41.4428C60.6131 41.1065 60.752 40.6239 60.752 39.995C60.752 39.2345 60.5546 38.7446 60.1597 38.5253C59.7649 38.3059 59.2018 38.1962 58.4706 38.1962C58.2366 38.1962 57.9953 38.1962 57.7467 38.1962C57.4981 38.1962 57.2348 38.1962 56.957 38.1962C56.6791 38.1962 56.3866 38.1962 56.0795 38.1962C55.6847 38.1962 55.2752 38.1816 54.8511 38.1523C54.4416 38.1085 54.0687 38.0134 53.7323 37.8672C53.3959 37.7209 53.1254 37.4869 52.9207 37.1652C52.7159 36.8434 52.6135 36.3828 52.6135 35.7832C52.6135 35.0958 52.7378 34.5547 52.9865 34.1599C53.2497 33.7504 53.608 33.4506 54.0614 33.2605C54.5293 33.0704 55.0558 32.9534 55.6408 32.9095C56.2258 32.851 56.8473 32.8217 57.5054 32.8217C57.9003 32.8217 58.3463 32.8364 58.8435 32.8656C59.3408 32.8802 59.8087 32.9241 60.2475 32.9972C60.7008 33.0557 61.0591 33.1581 61.3224 33.3043C61.4832 33.3482 61.6075 33.414 61.6953 33.5018C61.783 33.5749 61.8269 33.6773 61.8269 33.8089C61.8269 33.8528 61.8269 33.9113 61.8269 33.9844C61.8269 34.0429 61.8269 34.1014 61.8269 34.1599C61.8269 34.2184 61.8269 34.2696 61.8269 34.3134C61.6807 34.1526 61.454 34.0209 61.1469 33.9186C60.8398 33.8162 60.4961 33.7431 60.1159 33.6992C59.7502 33.6407 59.3919 33.6041 59.041 33.5895C58.69 33.5603 58.4048 33.5456 58.1854 33.5456H57.0667C56.4963 33.5456 55.9625 33.5895 55.4653 33.6773C54.9681 33.765 54.5586 33.9624 54.2368 34.2696C53.9297 34.5767 53.7762 35.0593 53.7762 35.7174C53.7762 36.2292 53.8785 36.6095 54.0833 36.8581C54.3027 37.0921 54.6025 37.2456 54.9827 37.3187C55.3629 37.3919 55.8017 37.4284 56.2989 37.4284C56.7961 37.4284 57.2422 37.4284 57.637 37.4284C58.0465 37.4284 58.4121 37.4284 58.7338 37.4284C59.3627 37.4284 59.9184 37.4869 60.401 37.6039C60.8836 37.7063 61.2639 37.9403 61.5417 38.3059C61.8196 38.6569 61.9585 39.2199 61.9585 39.995C61.9585 40.7701 61.783 41.377 61.432 41.8157C61.0811 42.2545 60.6058 42.5689 60.0062 42.759C59.4066 42.9345 58.7192 43.0442 57.9441 43.0881C57.6955 43.1173 57.4396 43.1319 57.1763 43.1319C56.9277 43.1319 56.6645 43.1319 56.3866 43.1319C56.1088 43.1319 55.7578 43.1173 55.3337 43.0881C54.9096 43.0588 54.4928 43.0149 54.0833 42.9564C53.6738 42.8833 53.3301 42.7883 53.0523 42.6713C52.7744 42.5396 52.6355 42.3642 52.6355 42.1448V41.7061Z" fill="white"/>
<path d="M69.3572 43.1539C68.5674 43.1539 67.8508 43.0954 67.2074 42.9784C66.5785 42.8614 66.0301 42.6274 65.5621 42.2764C65.1088 41.9108 64.7578 41.3843 64.5092 40.697C64.2606 40.0096 64.1362 39.0883 64.1362 37.933C64.1362 36.763 64.2752 35.827 64.553 35.1251C64.8309 34.4231 65.2111 33.9039 65.6937 33.5676C66.1764 33.2166 66.7467 32.9899 67.4048 32.8875C68.0775 32.7706 68.8014 32.7121 69.5765 32.7121C70.3516 32.7121 71.0536 32.7779 71.6824 32.9095C72.3259 33.0265 72.8743 33.2605 73.3277 33.6115C73.7957 33.9624 74.154 34.4816 74.4026 35.169C74.6512 35.8563 74.7755 36.7776 74.7755 37.933C74.7755 39.1175 74.6366 40.0608 74.3587 40.7628C74.0955 41.4501 73.7225 41.9693 73.2399 42.3203C72.7573 42.6566 72.187 42.8833 71.5289 43.0003C70.8708 43.1027 70.1469 43.1539 69.3572 43.1539ZM69.4449 42.4519C70.103 42.4519 70.688 42.4007 71.1998 42.2983C71.7117 42.196 72.1431 41.9912 72.4941 41.6841C72.8597 41.3624 73.1303 40.909 73.3057 40.3241C73.4959 39.7245 73.5909 38.9274 73.5909 37.933C73.5909 36.9531 73.4959 36.1634 73.3057 35.5638C73.1303 34.9642 72.8597 34.5109 72.4941 34.2037C72.1431 33.8966 71.7117 33.6919 71.1998 33.5895C70.688 33.4725 70.103 33.414 69.4449 33.414C68.7722 33.414 68.1799 33.4725 67.668 33.5895C67.1708 33.6919 66.7467 33.8966 66.3957 34.2037C66.0447 34.5109 65.7742 34.9642 65.5841 35.5638C65.4086 36.1634 65.3208 36.9531 65.3208 37.933C65.3208 38.9274 65.4086 39.7245 65.5841 40.3241C65.7742 40.909 66.0447 41.3624 66.3957 41.6841C66.7467 41.9912 67.1708 42.196 67.668 42.2983C68.1799 42.4007 68.7722 42.4519 69.4449 42.4519Z" fill="white"/>
<path d="M86.6653 38.8762C86.6653 39.432 86.636 39.9658 86.5776 40.4776C86.5337 40.9895 86.3728 41.4428 86.0949 41.8377C85.8171 42.2179 85.3637 42.5177 84.7349 42.7371C84.106 42.9564 83.2213 43.0661 82.0806 43.0661C81.1885 43.0661 80.4572 42.993 79.8869 42.8468C79.3165 42.7005 78.8778 42.4958 78.5707 42.2325C78.2636 41.9693 78.0369 41.6695 77.8907 41.3331C77.759 40.9968 77.6786 40.6239 77.6494 40.2144C77.6201 39.8049 77.6055 39.3881 77.6055 38.964V33.5895C77.6055 33.3994 77.6055 33.2605 77.6055 33.1727C77.6201 33.0704 77.664 33.0045 77.7371 32.9753C77.8249 32.9314 77.9418 32.9095 78.0881 32.9095H78.7462V39.7318C78.7462 40.3899 78.8559 40.909 79.0752 41.2893C79.3092 41.6695 79.6675 41.94 80.1501 42.1009C80.6474 42.2472 81.2908 42.3203 82.0806 42.3203C83.2944 42.3203 84.1718 42.1229 84.7129 41.728C85.254 41.3185 85.5246 40.6458 85.5246 39.7098V32.9095H86.1608C86.3216 32.9095 86.4386 32.9314 86.5117 32.9753C86.5849 33.0045 86.6287 33.0704 86.6434 33.1727C86.658 33.2605 86.6653 33.3994 86.6653 33.5895V38.8762Z" fill="white"/>
<path d="M90.3998 43.0003V33.7211C90.3998 33.3555 90.4218 33.1288 90.4656 33.0411C90.5095 32.9534 90.6558 32.9095 90.9044 32.9095H91.8476L98.8893 41.7938L98.9332 41.7061V32.9095H99.8545C99.8399 32.9241 99.8253 32.9753 99.8106 33.063C99.796 33.1362 99.7887 33.2166 99.7887 33.3043C99.7887 33.3921 99.7887 33.4798 99.7887 33.5676V42.2325C99.7887 42.5835 99.7594 42.8029 99.7009 42.8906C99.6424 42.9638 99.4816 43.0003 99.2183 43.0003H98.3409L91.2992 34.0721L91.2773 34.116V43.0003H90.3998Z" fill="white"/>
<path d="M113.616 38.0426C113.616 39.2857 113.484 40.2509 113.221 40.9383C112.958 41.6256 112.578 42.1155 112.08 42.408C111.598 42.7005 111.013 42.8833 110.325 42.9564C109.638 43.0296 108.87 43.0661 108.022 43.0661C107.671 43.0661 107.284 43.0588 106.859 43.0442C106.435 43.0442 106.011 43.0369 105.587 43.0223C105.163 43.0223 104.783 43.0149 104.446 43.0003C104.125 43.0003 103.876 43.0003 103.701 43.0003V34.2915C103.701 33.8381 103.752 33.5091 103.854 33.3043C103.957 33.085 104.264 32.9534 104.775 32.9095C104.966 32.8949 105.243 32.8875 105.609 32.8875C105.975 32.8729 106.37 32.8656 106.794 32.8656C107.218 32.851 107.627 32.8437 108.022 32.8437C108.432 32.8437 108.753 32.851 108.987 32.8656C109.733 32.9095 110.391 32.9826 110.962 33.085C111.532 33.1727 112.015 33.3848 112.409 33.7211C112.819 34.0429 113.119 34.5474 113.309 35.2348C113.514 35.9221 113.616 36.8581 113.616 38.0426ZM104.841 42.2983C104.944 42.2983 105.134 42.3057 105.412 42.3203C105.704 42.3203 106.026 42.3276 106.377 42.3422C106.728 42.3422 107.064 42.3495 107.386 42.3642C107.708 42.3642 107.956 42.3642 108.132 42.3642C108.936 42.3642 109.609 42.313 110.15 42.2106C110.706 42.0936 111.152 41.8889 111.488 41.5964C111.824 41.2893 112.066 40.8578 112.212 40.3021C112.373 39.7318 112.453 38.9859 112.453 38.0646C112.453 36.8215 112.322 35.8782 112.058 35.2348C111.81 34.5767 111.386 34.1306 110.786 33.8966C110.187 33.6626 109.346 33.5456 108.263 33.5456C108.059 33.5456 107.752 33.5456 107.342 33.5456C106.947 33.5456 106.545 33.553 106.136 33.5676C105.741 33.5822 105.441 33.6115 105.236 33.6553C105.119 33.6846 105.024 33.7504 104.951 33.8528C104.878 33.9405 104.841 34.1379 104.841 34.445V42.2983Z" fill="white"/>
<path d="M36.6812 10.3687L41.8166 13.295V28.1091L22.3756 39.2654V49.5073L17.0568 46.581V36.3392L36.6812 25.5486V10.3687Z" fill="white"/>
<path d="M25.1267 40.9114V48.4099L29.1616 46.2152V38.7167L25.1267 40.9114Z" fill="white"/>
<path d="M31.5459 37.2536V44.7521L35.5808 42.5574V35.0589L31.5459 37.2536Z" fill="white"/>
<path d="M37.7817 33.5958V41.0943L41.8166 38.8996V31.4011L37.7817 33.5958Z" fill="white"/>
<path d="M28.0612 5.43071L33.1965 8.35696V22.0737L13.7555 33.23V44.5692L8.43669 41.643V30.3038L28.0612 19.5133V5.43071Z" fill="white"/>
<path d="M19.6245 0.492676L24.7598 3.41892V16.0383L5.31878 27.1947V39.8141L0 36.8878V24.2684L19.6245 13.4779V0.492676Z" fill="white"/>
<path d="M12.8384 3.96759V13.4779L16.69 11.2832V1.59002L12.8384 3.96759Z" fill="white"/>
<path d="M6.41922 7.6254V17.1357L10.2708 14.941V5.24782L6.41922 7.6254Z" fill="white"/>
<path d="M0 11.2832V20.7935L3.85153 18.5988V8.90563L0 11.2832Z" fill="white"/>
</svg>
