<svg version="1.1" id="Layer_1" xmlns="http://www.w3.org/2000/svg" xmlns:xlink="http://www.w3.org/1999/xlink" x="0px" y="0px"
	 width="100%" viewBox="0 0 250 250" enable-background="new 0 0 250 250" xml:space="preserve">
<path fill="#161616" opacity="1.000000" stroke="none" 
	d="
M116.000000,251.000000 
	C77.333336,251.000000 39.166672,251.000000 1.000005,251.000000 
	C1.000003,167.666672 1.000003,84.333351 1.000002,1.000016 
	C84.333321,1.000011 167.666641,1.000011 250.999969,1.000005 
	C250.999985,84.333321 250.999985,167.666641 251.000000,250.999969 
	C206.166672,251.000000 161.333328,251.000000 116.000000,251.000000 
M189.502075,103.694618 
	C184.426346,103.694618 179.350632,103.694618 174.328903,103.694618 
	C174.328903,107.564590 174.328903,110.655739 174.328903,114.318771 
	C179.218033,114.318771 183.858444,114.318771 190.100235,114.318771 
	C176.507065,127.835480 164.026505,140.245850 151.614838,152.587692 
	C153.879395,154.993668 156.143005,157.398666 159.172775,160.617676 
	C171.800629,147.903946 184.263596,135.356216 197.101257,122.431236 
	C197.101257,128.065536 197.101257,133.319717 197.101257,138.633728 
	C200.703140,138.633728 203.918304,138.633728 207.216614,138.633728 
	C207.216614,126.912514 207.216614,115.494278 207.216614,103.694611 
	C201.454681,103.694611 195.977325,103.694611 189.502075,103.694618 
M106.997833,129.028519 
	C111.023529,128.659470 115.124344,127.643120 119.054268,128.099243 
	C123.173615,128.577362 125.778854,131.721527 125.859924,136.118698 
	C125.944046,140.680740 123.486351,143.766617 119.170822,144.911224 
	C116.019829,145.746994 112.686508,145.895340 109.426208,146.351273 
	C109.426208,148.061081 109.426208,149.758438 109.426208,151.536011 
	C112.604958,151.694305 115.438988,151.661728 118.224998,152.011581 
	C123.457390,152.668640 126.686989,155.674561 127.112137,159.960297 
	C127.594276,164.820709 124.840187,168.745361 119.749130,170.452805 
	C110.836929,173.441742 103.780014,169.631516 100.292595,160.008926 
	C98.298492,160.008926 96.334030,160.008926 92.732063,160.008926 
	C95.052155,164.495987 96.269539,168.819870 98.994659,171.733658 
	C105.843124,179.056290 121.907074,178.958725 129.355148,172.170105 
	C133.569641,168.328781 135.491562,163.223694 133.475235,158.188202 
	C131.875290,154.192566 128.044464,151.090210 125.262505,147.663086 
	C129.836914,145.626724 132.999435,141.472458 132.655670,135.243210 
	C132.331024,129.360947 129.287704,125.181000 123.808205,123.070435 
	C117.706734,120.720314 111.445969,120.473068 105.290779,122.908737 
	C98.632088,125.543633 95.502808,130.638336 96.392853,137.039780 
	C98.181084,137.039780 99.972443,137.039780 101.028046,137.039780 
	C102.986282,134.182541 104.627319,131.788132 106.997833,129.028519 
M89.548729,78.500259 
	C89.548729,70.718292 89.548729,62.936317 89.548729,54.933792 
	C85.635475,54.933792 82.222954,54.933792 78.603798,54.933792 
	C78.280716,64.542534 70.275826,59.351818 66.320518,61.433128 
	C66.320518,64.485214 66.320518,67.243332 66.320518,70.363594 
	C70.340820,70.363594 74.092705,70.363594 78.204636,70.363594 
	C78.204636,82.003471 78.204636,93.279617 78.204636,104.722885 
	C82.122353,104.722885 85.663383,104.722885 89.548683,104.722885 
	C89.548683,96.116409 89.548683,87.808334 89.548729,78.500259 
M74.455261,158.831909 
	C71.554878,169.771164 66.065063,180.025543 65.224533,191.619019 
	C68.761528,192.951355 70.019356,191.732544 70.959579,188.776321 
	C76.532578,171.253876 82.303596,153.794479 87.984695,136.306320 
	C89.501556,131.636963 90.936760,126.941093 92.482330,122.025604 
	C90.095177,122.025604 88.316948,122.025604 86.424339,122.025604 
	C82.500008,134.161407 78.629654,146.130264 74.455261,158.831909 
z"/>
<path fill="#F4F4F4" opacity="1.000000" stroke="none" 
	d="
M190.001022,103.694611 
	C195.977325,103.694611 201.454681,103.694611 207.216614,103.694611 
	C207.216614,115.494278 207.216614,126.912514 207.216614,138.633728 
	C203.918304,138.633728 200.703140,138.633728 197.101257,138.633728 
	C197.101257,133.319717 197.101257,128.065536 197.101257,122.431236 
	C184.263596,135.356216 171.800629,147.903946 159.172775,160.617676 
	C156.143005,157.398666 153.879395,154.993668 151.614838,152.587692 
	C164.026505,140.245850 176.507065,127.835480 190.100235,114.318771 
	C183.858444,114.318771 179.218033,114.318771 174.328903,114.318771 
	C174.328903,110.655739 174.328903,107.564590 174.328903,103.694618 
	C179.350632,103.694618 184.426346,103.694618 190.001022,103.694611 
z"/>
<path fill="#EFEFEF" opacity="1.000000" stroke="none" 
	d="
M106.633095,129.211121 
	C104.627319,131.788132 102.986282,134.182541 101.028046,137.039780 
	C99.972443,137.039780 98.181084,137.039780 96.392853,137.039780 
	C95.502808,130.638336 98.632088,125.543633 105.290779,122.908737 
	C111.445969,120.473068 117.706734,120.720314 123.808205,123.070435 
	C129.287704,125.181000 132.331024,129.360947 132.655670,135.243210 
	C132.999435,141.472458 129.836914,145.626724 125.262505,147.663086 
	C128.044464,151.090210 131.875290,154.192566 133.475235,158.188202 
	C135.491562,163.223694 133.569641,168.328781 129.355148,172.170105 
	C121.907074,178.958725 105.843124,179.056290 98.994659,171.733658 
	C96.269539,168.819870 95.052155,164.495987 92.732063,160.008926 
	C96.334030,160.008926 98.298492,160.008926 100.292595,160.008926 
	C103.780014,169.631516 110.836929,173.441742 119.749130,170.452805 
	C124.840187,168.745361 127.594276,164.820709 127.112137,159.960297 
	C126.686989,155.674561 123.457390,152.668640 118.224998,152.011581 
	C115.438988,151.661728 112.604958,151.694305 109.426208,151.536011 
	C109.426208,149.758438 109.426208,148.061081 109.426208,146.351273 
	C112.686508,145.895340 116.019829,145.746994 119.170822,144.911224 
	C123.486351,143.766617 125.944046,140.680740 125.859924,136.118698 
	C125.778854,131.721527 123.173615,128.577362 119.054268,128.099243 
	C115.124344,127.643120 111.023529,128.659470 106.633095,129.211121 
z"/>
<path fill="#EBEBEB" opacity="1.000000" stroke="none" 
	d="
M89.548706,79.000259 
	C89.548683,87.808334 89.548683,96.116409 89.548683,104.722885 
	C85.663383,104.722885 82.122353,104.722885 78.204636,104.722885 
	C78.204636,93.279617 78.204636,82.003471 78.204636,70.363594 
	C74.092705,70.363594 70.340820,70.363594 66.320518,70.363594 
	C66.320518,67.243332 66.320518,64.485214 66.320518,61.433128 
	C70.275826,59.351818 78.280716,64.542534 78.603798,54.933792 
	C82.222954,54.933792 85.635475,54.933792 89.548729,54.933792 
	C89.548729,62.936317 89.548729,70.718292 89.548706,79.000259 
z"/>
<path fill="#ECECEC" opacity="1.000000" stroke="none" 
	d="
M74.607285,158.465515 
	C78.629654,146.130264 82.500008,134.161407 86.424339,122.025604 
	C88.316948,122.025604 90.095177,122.025604 92.482330,122.025604 
	C90.936760,126.941093 89.501556,131.636963 87.984695,136.306320 
	C82.303596,153.794479 76.532578,171.253876 70.959579,188.776321 
	C70.019356,191.732544 68.761528,192.951355 65.224533,191.619019 
	C66.065063,180.025543 71.554878,169.771164 74.607285,158.465515 
z"/>
</svg>