<svg version="1.1" id="Layer_1" xmlns="http://www.w3.org/2000/svg" xmlns:xlink="http://www.w3.org/1999/xlink" x="0px" y="0px"
	 width="100%" viewBox="0 0 250 250" enable-background="new 0 0 250 250" xml:space="preserve">
<path fill="#171717" opacity="1.000000" stroke="none" 
	d="
M123.000000,251.000000 
	C82.000000,251.000000 41.500004,251.000000 1.000005,251.000000 
	C1.000004,167.666672 1.000004,84.333351 1.000002,1.000017 
	C84.333321,1.000011 167.666641,1.000011 250.999969,1.000005 
	C250.999985,84.333321 250.999985,167.666641 251.000000,250.999969 
	C208.500000,251.000000 166.000000,251.000000 123.000000,251.000000 
M87.502258,113.306198 
	C95.928482,113.306198 104.354706,113.306198 112.721214,113.306198 
	C112.721214,109.819267 112.721214,106.939293 112.721214,103.603012 
	C105.036285,103.603012 97.703651,103.603012 89.661980,103.603012 
	C95.303963,98.887146 100.387177,94.844704 105.232338,90.534660 
	C110.895714,85.496788 114.191559,79.360710 112.541672,71.486794 
	C109.842476,58.605183 90.616928,53.080761 79.523872,62.024261 
	C74.574707,66.014404 72.188538,71.153419 72.982811,77.770233 
	C76.781563,77.770233 80.237442,77.770233 83.723526,77.770233 
	C83.966125,76.319115 84.045708,74.981880 84.423195,73.734825 
	C86.027573,68.434532 90.969933,66.117233 96.350151,68.063774 
	C100.854767,69.693520 102.909241,74.925453 100.427017,79.667801 
	C99.156631,82.094910 97.151024,84.280472 95.070335,86.112556 
	C89.449074,91.062187 83.923531,96.225365 77.758797,100.420303 
	C72.674789,103.879829 72.303154,107.988464 73.340935,113.306206 
	C77.872826,113.306206 82.188492,113.306206 87.502258,113.306198 
M200.492325,111.929436 
	C193.412613,111.929436 186.332901,111.929436 179.331085,111.929436 
	C179.331085,115.720360 179.331085,118.815453 179.331085,122.501785 
	C184.220200,122.501785 188.861771,122.501785 193.503342,122.501785 
	C193.686996,122.894737 193.870667,123.287689 194.054337,123.680649 
	C181.641220,136.083466 169.228104,148.486298 156.864639,160.839508 
	C159.250305,163.144562 161.588226,165.403473 164.574951,168.289261 
	C176.826782,156.025085 189.203171,143.636215 202.075897,130.750519 
	C202.075897,136.444962 202.075897,141.652756 202.075897,146.760559 
	C205.831863,146.760559 209.076813,146.760559 212.194794,146.760559 
	C212.194794,135.049530 212.194794,123.650352 212.194794,111.929436 
	C208.431259,111.929436 204.961121,111.929436 200.492325,111.929436 
M115.771942,154.066620 
	C115.064079,155.826935 114.356209,157.587250 113.613541,159.434113 
	C118.216362,159.954636 121.727020,160.053009 125.089844,160.809006 
	C129.113571,161.713562 131.915390,164.113815 132.153488,168.674057 
	C132.392319,173.248474 130.269760,176.220169 126.213081,178.104889 
	C117.026871,182.372726 108.349426,178.281937 105.427345,168.300369 
	C103.318985,168.300369 101.236473,168.300369 99.096413,168.300369 
	C99.357811,175.162613 102.165878,180.383804 108.118645,183.055481 
	C116.116241,186.644928 124.364441,186.545151 132.104584,182.094833 
	C138.097092,178.649307 141.066940,171.074509 138.118408,165.325516 
	C136.274521,161.730331 132.710449,159.017426 130.060944,156.067474 
	C135.823059,152.841812 138.424347,148.450531 137.574295,142.354263 
	C136.712936,136.176926 132.412247,131.299103 125.295425,130.384323 
	C120.330421,129.746124 114.978966,130.176025 110.095840,131.354340 
	C104.603577,132.679611 99.546211,139.662186 101.314667,145.318390 
	C103.035469,145.318390 104.823753,145.318390 106.729065,145.318390 
	C106.967285,144.716995 107.217110,144.111389 107.448311,143.498764 
	C110.410995,135.648499 121.159309,132.768295 127.702461,138.072968 
	C132.399368,141.880844 132.139236,148.969757 126.667480,151.866562 
	C123.760094,153.405731 120.022255,153.376297 115.771942,154.066620 
M71.930870,190.359787 
	C71.307922,193.519867 70.684975,196.679932 70.070450,199.797318 
	C74.142181,201.432709 75.157120,199.599564 76.025490,196.883362 
	C81.277397,180.455780 86.648033,164.066193 91.967606,147.660233 
	C93.823174,141.937515 95.646454,136.204346 97.546555,130.282501 
	C95.067940,130.282501 93.285484,130.282501 91.464516,130.282501 
	C84.974312,150.183990 78.550369,169.882294 71.930870,190.359787 
z"/>
<path fill="#F4F4F4" opacity="1.000000" stroke="none" 
	d="
M87.003204,113.306198 
	C82.188492,113.306206 77.872826,113.306206 73.340935,113.306206 
	C72.303154,107.988464 72.674789,103.879829 77.758797,100.420303 
	C83.923531,96.225365 89.449074,91.062187 95.070335,86.112556 
	C97.151024,84.280472 99.156631,82.094910 100.427017,79.667801 
	C102.909241,74.925453 100.854767,69.693520 96.350151,68.063774 
	C90.969933,66.117233 86.027573,68.434532 84.423195,73.734825 
	C84.045708,74.981880 83.966125,76.319115 83.723526,77.770233 
	C80.237442,77.770233 76.781563,77.770233 72.982811,77.770233 
	C72.188538,71.153419 74.574707,66.014404 79.523872,62.024261 
	C90.616928,53.080761 109.842476,58.605183 112.541672,71.486794 
	C114.191559,79.360710 110.895714,85.496788 105.232338,90.534660 
	C100.387177,94.844704 95.303963,98.887146 89.661980,103.603012 
	C97.703651,103.603012 105.036285,103.603012 112.721214,103.603012 
	C112.721214,106.939293 112.721214,109.819267 112.721214,113.306198 
	C104.354706,113.306198 95.928482,113.306198 87.003204,113.306198 
z"/>
<path fill="#F7F7F7" opacity="1.000000" stroke="none" 
	d="
M200.991638,111.929436 
	C204.961121,111.929436 208.431259,111.929436 212.194794,111.929436 
	C212.194794,123.650352 212.194794,135.049530 212.194794,146.760559 
	C209.076813,146.760559 205.831863,146.760559 202.075897,146.760559 
	C202.075897,141.652756 202.075897,136.444962 202.075897,130.750519 
	C189.203171,143.636215 176.826782,156.025085 164.574951,168.289261 
	C161.588226,165.403473 159.250305,163.144562 156.864639,160.839508 
	C169.228104,148.486298 181.641220,136.083466 194.054337,123.680649 
	C193.870667,123.287689 193.686996,122.894737 193.503342,122.501785 
	C188.861771,122.501785 184.220200,122.501785 179.331085,122.501785 
	C179.331085,118.815453 179.331085,115.720360 179.331085,111.929436 
	C186.332901,111.929436 193.412613,111.929436 200.991638,111.929436 
z"/>
<path fill="#EFEFEF" opacity="1.000000" stroke="none" 
	d="
M116.215607,154.060791 
	C120.022255,153.376297 123.760094,153.405731 126.667480,151.866562 
	C132.139236,148.969757 132.399368,141.880844 127.702461,138.072968 
	C121.159309,132.768295 110.410995,135.648499 107.448311,143.498764 
	C107.217110,144.111389 106.967285,144.716995 106.729065,145.318390 
	C104.823753,145.318390 103.035469,145.318390 101.314667,145.318390 
	C99.546211,139.662186 104.603577,132.679611 110.095840,131.354340 
	C114.978966,130.176025 120.330421,129.746124 125.295425,130.384323 
	C132.412247,131.299103 136.712936,136.176926 137.574295,142.354263 
	C138.424347,148.450531 135.823059,152.841812 130.060944,156.067474 
	C132.710449,159.017426 136.274521,161.730331 138.118408,165.325516 
	C141.066940,171.074509 138.097092,178.649307 132.104584,182.094833 
	C124.364441,186.545151 116.116241,186.644928 108.118645,183.055481 
	C102.165878,180.383804 99.357811,175.162613 99.096413,168.300369 
	C101.236473,168.300369 103.318985,168.300369 105.427345,168.300369 
	C108.349426,178.281937 117.026871,182.372726 126.213081,178.104889 
	C130.269760,176.220169 132.392319,173.248474 132.153488,168.674057 
	C131.915390,164.113815 129.113571,161.713562 125.089844,160.809006 
	C121.727020,160.053009 118.216362,159.954636 113.613541,159.434113 
	C114.356209,157.587250 115.064079,155.826935 116.215607,154.060791 
z"/>
<path fill="#EBEBEB" opacity="1.000000" stroke="none" 
	d="
M72.028648,189.970200 
	C78.550369,169.882294 84.974312,150.183990 91.464516,130.282501 
	C93.285484,130.282501 95.067940,130.282501 97.546555,130.282501 
	C95.646454,136.204346 93.823174,141.937515 91.967606,147.660233 
	C86.648033,164.066193 81.277397,180.455780 76.025490,196.883362 
	C75.157120,199.599564 74.142181,201.432709 70.070450,199.797318 
	C70.684975,196.679932 71.307922,193.519867 72.028648,189.970200 
z"/>
</svg>