<svg version="1.1" id="Layer_1" xmlns="http://www.w3.org/2000/svg" xmlns:xlink="http://www.w3.org/1999/xlink" x="0px" y="0px"
	 width="100%" viewBox="0 0 250 250" enable-background="new 0 0 250 250" xml:space="preserve">
<path fill="#171717" opacity="1.000000" stroke="none" 
	d="
M163.000000,251.000000 
	C108.666672,251.000000 54.833340,251.000000 1.000007,251.000000 
	C1.000005,167.666672 1.000005,84.333351 1.000002,1.000018 
	C84.333321,1.000012 167.666641,1.000012 250.999969,1.000006 
	C250.999969,84.333313 250.999969,167.666626 250.999985,250.999969 
	C221.833328,251.000000 192.666672,251.000000 163.000000,251.000000 
M78.546257,105.106621 
	C85.025124,108.729256 91.906052,108.787666 98.888069,107.200089 
	C107.038040,105.346939 111.657745,100.759193 112.565384,93.937500 
	C113.416214,87.542831 110.532974,83.355873 102.178917,79.152519 
	C103.398643,78.396500 104.491631,77.756340 105.546776,77.058929 
	C111.998207,72.794815 113.234497,64.331200 108.279587,58.426716 
	C100.931412,49.670334 80.809807,50.292980 74.368507,59.715549 
	C72.616035,62.279129 72.001068,65.620316 70.592804,69.316528 
	C73.436058,69.316528 75.076508,69.316528 76.716965,69.316528 
	C78.513107,69.316528 80.309250,69.316528 81.932358,69.316528 
	C84.377914,62.822491 88.359688,60.152756 93.678093,61.304344 
	C97.220894,62.071461 100.169991,63.968197 99.829575,67.977425 
	C99.070374,76.918846 91.566902,74.648430 85.957245,75.560219 
	C85.957245,78.508980 85.957245,81.246185 85.957245,84.072617 
	C88.846291,84.294075 91.487724,84.374817 94.093048,84.724518 
	C98.100967,85.262474 101.103264,87.001831 101.025818,91.655838 
	C100.957558,95.757019 97.839157,98.656631 93.160309,99.085083 
	C86.669250,99.679482 84.060493,97.716515 80.343971,89.485077 
	C77.011459,89.485077 73.712822,89.485077 70.088821,89.485077 
	C69.960236,96.170845 72.430122,101.210831 78.546257,105.106621 
M189.512299,106.158264 
	C185.086121,106.158264 180.659943,106.158264 176.439758,106.158264 
	C176.439758,110.180740 176.439758,113.416504 176.439758,117.068748 
	C181.362396,117.068748 185.912735,117.068748 191.918503,117.068748 
	C178.513092,130.425583 166.065018,142.828537 153.719498,155.129333 
	C156.163437,157.549744 158.478912,159.842926 161.259674,162.596909 
	C173.582230,150.191299 185.954178,137.735962 199.019913,124.582169 
	C199.019913,130.700287 199.019913,135.915878 199.019913,141.157379 
	C202.730209,141.157379 205.954742,141.157379 209.215973,141.157379 
	C209.215973,129.370361 209.215973,117.943184 209.215973,106.158264 
	C202.783463,106.158264 196.645325,106.158264 189.512299,106.158264 
M116.458832,148.443069 
	C114.820374,148.443069 113.181915,148.443069 111.378235,148.443069 
	C111.378235,150.608063 111.378235,152.311447 111.378235,153.833115 
	C115.014969,154.219986 118.348282,154.369308 121.597534,154.971909 
	C125.706413,155.733932 128.566879,158.091675 129.096512,162.499069 
	C129.669525,167.267334 127.506767,170.651154 123.193939,172.406891 
	C113.480553,176.361221 104.406685,172.545334 102.329376,162.505417 
	C100.387283,162.505417 98.442062,162.505417 96.295341,162.505417 
	C96.033813,167.709076 97.884087,171.760040 101.525574,175.031662 
	C108.893997,181.651672 124.445633,181.382904 131.608337,174.551880 
	C138.580154,167.902878 137.327332,157.401657 129.001999,152.617950 
	C128.111618,152.106354 127.270424,151.509216 126.077431,150.739487 
	C132.518143,147.932785 135.198196,143.315933 134.577011,136.978302 
	C133.963806,130.722260 130.037033,126.049667 123.015785,125.034233 
	C117.779724,124.276978 112.047180,124.512703 106.948441,125.863731 
	C100.580940,127.550957 97.676270,133.234436 98.270348,139.780487 
	C100.051147,139.780487 101.849327,139.780487 103.641609,139.780487 
	C107.085976,130.744080 114.430176,127.087997 122.314758,131.243820 
	C124.794319,132.550766 127.433815,136.084717 127.526276,138.687271 
	C127.621086,141.356033 125.038399,144.456558 122.937759,146.731003 
	C121.811829,147.950089 119.234787,147.828964 116.458832,148.443069 
M68.499352,185.915543 
	C68.066956,188.792236 67.634560,191.668915 67.231598,194.349823 
	C70.889435,195.760925 72.027161,194.367554 72.886063,191.690048 
	C79.530487,170.977142 86.306458,150.306458 93.008743,129.612030 
	C93.535858,127.984436 93.813805,126.276138 94.200096,124.636993 
	C90.200897,123.563103 88.326454,124.601326 87.168274,128.281296 
	C81.186684,147.287033 74.932823,166.207077 68.499352,185.915543 
z"/>
<path fill="#F2F2F2" opacity="1.000000" stroke="none" 
	d="
M78.210022,104.944649 
	C72.430122,101.210831 69.960236,96.170845 70.088821,89.485077 
	C73.712822,89.485077 77.011459,89.485077 80.343971,89.485077 
	C84.060493,97.716515 86.669250,99.679482 93.160309,99.085083 
	C97.839157,98.656631 100.957558,95.757019 101.025818,91.655838 
	C101.103264,87.001831 98.100967,85.262474 94.093048,84.724518 
	C91.487724,84.374817 88.846291,84.294075 85.957245,84.072617 
	C85.957245,81.246185 85.957245,78.508980 85.957245,75.560219 
	C91.566902,74.648430 99.070374,76.918846 99.829575,67.977425 
	C100.169991,63.968197 97.220894,62.071461 93.678093,61.304344 
	C88.359688,60.152756 84.377914,62.822491 81.932358,69.316528 
	C80.309250,69.316528 78.513107,69.316528 76.716965,69.316528 
	C75.076508,69.316528 73.436058,69.316528 70.592804,69.316528 
	C72.001068,65.620316 72.616035,62.279129 74.368507,59.715549 
	C80.809807,50.292980 100.931412,49.670334 108.279587,58.426716 
	C113.234497,64.331200 111.998207,72.794815 105.546776,77.058929 
	C104.491631,77.756340 103.398643,78.396500 102.178917,79.152519 
	C110.532974,83.355873 113.416214,87.542831 112.565384,93.937500 
	C111.657745,100.759193 107.038040,105.346939 98.888069,107.200089 
	C91.906052,108.787666 85.025124,108.729256 78.210022,104.944649 
z"/>
<path fill="#F3F3F3" opacity="1.000000" stroke="none" 
	d="
M190.009735,106.158264 
	C196.645325,106.158264 202.783463,106.158264 209.215973,106.158264 
	C209.215973,117.943184 209.215973,129.370361 209.215973,141.157379 
	C205.954742,141.157379 202.730209,141.157379 199.019913,141.157379 
	C199.019913,135.915878 199.019913,130.700287 199.019913,124.582169 
	C185.954178,137.735962 173.582230,150.191299 161.259674,162.596909 
	C158.478912,159.842926 156.163437,157.549744 153.719498,155.129333 
	C166.065018,142.828537 178.513092,130.425583 191.918503,117.068748 
	C185.912735,117.068748 181.362396,117.068748 176.439758,117.068748 
	C176.439758,113.416504 176.439758,110.180740 176.439758,106.158264 
	C180.659943,106.158264 185.086121,106.158264 190.009735,106.158264 
z"/>
<path fill="#EFEFEF" opacity="1.000000" stroke="none" 
	d="
M116.885712,148.377838 
	C119.234787,147.828964 121.811829,147.950089 122.937759,146.731003 
	C125.038399,144.456558 127.621086,141.356033 127.526276,138.687271 
	C127.433815,136.084717 124.794319,132.550766 122.314758,131.243820 
	C114.430176,127.087997 107.085976,130.744080 103.641609,139.780487 
	C101.849327,139.780487 100.051147,139.780487 98.270348,139.780487 
	C97.676270,133.234436 100.580940,127.550957 106.948441,125.863731 
	C112.047180,124.512703 117.779724,124.276978 123.015785,125.034233 
	C130.037033,126.049667 133.963806,130.722260 134.577011,136.978302 
	C135.198196,143.315933 132.518143,147.932785 126.077431,150.739487 
	C127.270424,151.509216 128.111618,152.106354 129.001999,152.617950 
	C137.327332,157.401657 138.580154,167.902878 131.608337,174.551880 
	C124.445633,181.382904 108.893997,181.651672 101.525574,175.031662 
	C97.884087,171.760040 96.033813,167.709076 96.295341,162.505417 
	C98.442062,162.505417 100.387283,162.505417 102.329376,162.505417 
	C104.406685,172.545334 113.480553,176.361221 123.193939,172.406891 
	C127.506767,170.651154 129.669525,167.267334 129.096512,162.499069 
	C128.566879,158.091675 125.706413,155.733932 121.597534,154.971909 
	C118.348282,154.369308 115.014969,154.219986 111.378235,153.833115 
	C111.378235,152.311447 111.378235,150.608063 111.378235,148.443069 
	C113.181915,148.443069 114.820374,148.443069 116.885712,148.377838 
z"/>
<path fill="#ECECEC" opacity="1.000000" stroke="none" 
	d="
M68.636642,185.536285 
	C74.932823,166.207077 81.186684,147.287033 87.168274,128.281296 
	C88.326454,124.601326 90.200897,123.563103 94.200096,124.636993 
	C93.813805,126.276138 93.535858,127.984436 93.008743,129.612030 
	C86.306458,150.306458 79.530487,170.977142 72.886063,191.690048 
	C72.027161,194.367554 70.889435,195.760925 67.231598,194.349823 
	C67.634560,191.668915 68.066956,188.792236 68.636642,185.536285 
z"/>
</svg>