<svg width="44" height="44" viewBox="0 0 44 44" fill="none" xmlns="http://www.w3.org/2000/svg">
    <path fill-rule="evenodd" clip-rule="evenodd"
        d="M44 22C44 34.1503 34.1503 44 22 44C9.84974 44 0 34.1503 0 22C0 9.84974 9.84974 0 22 0C34.1503 0 44 9.84974 44 22ZM15 12H19C19.5523 12 20 12.4477 20 13V31C20 31.5523 19.5523 32 19 32H15C14.4477 32 14 31.5523 14 31V13C14 12.4477 14.4477 12 15 12ZM29 12H25C24.4477 12 24 12.4477 24 13V31C24 31.5523 24.4477 32 25 32H29C29.5523 32 30 31.5523 30 31V13C30 12.4477 29.5523 12 29 12Z"
        fill="white" />
</svg>