<svg width="48" height="48" viewBox="0 0 48 48" fill="none" xmlns="http://www.w3.org/2000/svg">
    <path
        d="M2 24C2 11.85 11.85 2 24 2C36.15 2 46 11.85 46 24C46 36.15 36.15 46 24 46C11.85 46 2 36.15 2 24ZM19.5 14.866C19.348 14.7782 19.1755 14.732 19 14.732C18.8245 14.732 18.652 14.7782 18.5 14.866C18.348 14.9538 18.2218 15.08 18.134 15.232C18.0462 15.384 18 15.5565 18 15.732V32.268C18 32.4435 18.0462 32.616 18.134 32.768C18.2218 32.92 18.348 33.0462 18.5 33.134C18.652 33.2218 18.8245 33.268 19 33.268C19.1755 33.268 19.348 33.2218 19.5 33.134L33.822 24.866C33.974 24.7782 34.1002 24.652 34.188 24.5C34.2758 24.348 34.322 24.1755 34.322 24C34.322 23.8245 34.2758 23.652 34.188 23.5C34.1002 23.348 33.974 23.2218 33.822 23.134L19.5 14.866Z"
        fill="white" />
</svg>